<svg xmlns="http://www.w3.org/2000/svg" version="1.1" width="3300" height="2000"><g id="Notes"><style>
    text {
      font-family: monospace;
      text-anchor: middle;
    }
    text.emphasis {
      font-weight:bold;
    }
    text.lanchor {
      text-anchor: start;
    }
  </style><rect height="2200" id="artboard" fill="white" width="3300" x="0" y="0"/><line id="" style="fill:none;stroke:black;stroke-width:0.5;" x1="263" x2="3036" y1="292" y2="292"/><text class="lanchor emphasis" transform="matrix(1 0 0 1 263 322)">Weight/Scale Variations</text><text transform="matrix(1 0 0 1 559.711 322)">Ultralight</text><text transform="matrix(1 0 0 1 856.422 322)">Thin</text><text transform="matrix(1 0 0 1 1153.13 322)">Light</text><text transform="matrix(1 0 0 1 1449.84 322)">Regular</text><text transform="matrix(1 0 0 1 1746.56 322)">Medium</text><text transform="matrix(1 0 0 1 2043.27 322)">Semibold</text><text transform="matrix(1 0 0 1 2339.98 322)">Bold</text><text transform="matrix(1 0 0 1 2636.69 322)">Heavy</text><text transform="matrix(1 0 0 1 2933.4 322)">Black</text><text id="template-version" style="text-anchor: end;" transform="matrix(1 0 0 1 3036 1933)">Template v.1.0</text><text class="lanchor" transform="matrix(1 0 0 1 263 726)">Small</text><text class="lanchor" transform="matrix(1 0 0 1 263 1156)">Medium</text><text class="lanchor" transform="matrix(1 0 0 1 263 1586)">Large</text></g><g id="Guides"><g id="H-reference" style="fill:#27AAE1;stroke:none;" transform="matrix(1 0 0 1 339 696)"><path d="M 54.9316 0 L 57.666 0 L 30.5664 -70.459 L 28.0762 -70.459 L 0.976562 0 L 3.66211 0 L 12.9395 -24.4629 L 45.7031 -24.4629 Z M 29.1992 -67.0898 L 29.4434 -67.0898 L 44.8242 -26.709 L 13.8184 -26.709 Z"/></g><line id="Baseline-S" style="fill:none;stroke:#27AAE1;opacity:1;stroke-width:0.577;" x1="263" x2="3036" y1="696" y2="696"/><line id="Capline-S" style="fill:none;stroke:#27AAE1;opacity:1;stroke-width:0.577;" x1="263" x2="3036" y1="625.541" y2="625.541"/><g id="H-reference" style="fill:#27AAE1;stroke:none;" transform="matrix(1 0 0 1 339 1126)"><path d="M 54.9316 0 L 57.666 0 L 30.5664 -70.459 L 28.0762 -70.459 L 0.976562 0 L 3.66211 0 L 12.9395 -24.4629 L 45.7031 -24.4629 Z M 29.1992 -67.0898 L 29.4434 -67.0898 L 44.8242 -26.709 L 13.8184 -26.709 Z"/></g><line id="Baseline-M" style="fill:none;stroke:#27AAE1;opacity:1;stroke-width:0.577;" x1="263" x2="3036" y1="1126" y2="1126"/><line id="Capline-M" style="fill:none;stroke:#27AAE1;opacity:1;stroke-width:0.577;" x1="263" x2="3036" y1="1055.54" y2="1055.54"/><g id="H-reference" style="fill:#27AAE1;stroke:none;" transform="matrix(1 0 0 1 339 1556)"><path d="M 54.9316 0 L 57.666 0 L 30.5664 -70.459 L 28.0762 -70.459 L 0.976562 0 L 3.66211 0 L 12.9395 -24.4629 L 45.7031 -24.4629 Z M 29.1992 -67.0898 L 29.4434 -67.0898 L 44.8242 -26.709 L 13.8184 -26.709 Z"/></g><line id="Baseline-L" style="fill:none;stroke:#27AAE1;opacity:1;stroke-width:0.577;" x1="263" x2="3036" y1="1556" y2="1556"/><line id="Capline-L" style="fill:none;stroke:#27AAE1;opacity:1;stroke-width:0.577;" x1="263" x2="3036" y1="1485.54" y2="1485.54"/><rect height="119.336" id="left-margin" style="fill:darkred;stroke:none;opacity:0.4;" width="12.4512" x="1394.06" y="1030.79"/><rect height="119.336" id="right-margin" style="fill:darkgreen;stroke:none;opacity:0.4;" width="12.4512" x="1502.5112" y="1030.79"/><rect x="1406.5112" y="1045" width="96" height="96" fill="none" stroke="blue" stroke-dasharray="5"/><rect x="1394.06" y="1030.79" width="120.9024" height="119.336" fill="none" stroke="blue"/></g><g id="Symbols"><g id="Bold-L" transform="matrix(1 0 0 1 2266 1556)"><path d="M31.444 14.113  3.225 -14.106  13.706 -24.265  24.349 -13.461 V-60.707 Q24.349 -73.285 33.056 -82.073 Q41.764 -90.861 54.341 -90.861 Q66.919 -90.861 75.626 -82.073 Q84.334 -73.285 84.334 -60.707 V-16.041 Q84.334 -9.43 89.01 -4.834 Q93.686 -0.239 100.297 -0.239 Q106.909 -0.239 111.666 -4.834 Q116.422 -9.43 116.422 -16.041 V-63.449 L105.619 -52.645 L95.299 -62.965 L123.356 -91.022 L151.575 -62.804 L141.255 -52.645 L130.451 -63.449 V-16.041 Q130.451 -3.464 121.663 5.163 Q112.875 13.79 100.297 13.79 Q87.72 13.79 79.013 5.163 Q70.305 -3.464 70.305 -16.041 V-60.707 Q70.305 -67.319 65.629 -72.076 Q60.953 -76.832 54.341 -76.832 Q47.73 -76.832 43.054 -72.076 Q38.377 -67.319 38.377 -60.707 V-13.461 L49.181 -24.265 L59.501 -13.945 L31.444 14.113 Z"/></g><g id="Semibold-L" transform="matrix(1 0 0 1 1970.27 1556)"><path d="M33.897 12.29  7.431 -14.176  16.51 -23.073  27.784 -11.709 V-61.198 Q27.784 -72.864 35.86 -80.986 Q43.937 -89.109 55.603 -89.109 Q67.269 -89.109 75.346 -80.986 Q83.422 -72.864 83.422 -61.198 V-15.691 Q83.422 -9.22 88.028 -4.659 Q92.635 -0.098 99.106 -0.098 Q105.577 -0.098 110.229 -4.659 Q114.88 -9.22 114.88 -15.691 V-65.201 L103.516 -53.837 L94.528 -62.825 L120.903 -89.2 L147.369 -62.734 L138.381 -53.837 L127.016 -65.201 V-15.691 Q127.016 -4.025 118.894 4.006 Q110.772 12.037 99.106 12.037 Q87.44 12.037 79.363 4.006 Q71.287 -4.025 71.287 -15.691 V-61.198 Q71.287 -67.669 66.68 -72.321 Q62.074 -76.973 55.603 -76.973 Q49.132 -76.973 44.526 -72.321 Q39.92 -67.669 39.92 -61.198 V-11.709 L51.284 -23.073 L60.272 -14.085 L33.897 12.29 Z"/></g><g id="Medium-L" transform="matrix(1 0 0 1 1674.31 1556)"><path d="M35.738 10.923  10.586 -14.229  18.614 -22.179  30.36 -10.394 V-61.566 Q30.36 -72.549 37.964 -80.172 Q45.567 -87.794 56.55 -87.794 Q67.532 -87.794 75.136 -80.172 Q82.739 -72.549 82.739 -61.566 V-15.428 Q82.739 -9.062 87.292 -4.528 Q91.846 0.007 98.212 0.007 Q104.578 0.007 109.15 -4.528 Q113.723 -9.062 113.723 -15.428 V-66.516 L101.938 -54.731 L93.949 -62.72 L119.062 -87.833 L144.214 -62.681 L136.225 -54.731 L124.44 -66.516 V-15.428 Q124.44 -4.445 116.817 3.139 Q109.194 10.723 98.212 10.723 Q87.229 10.723 79.626 3.139 Q72.023 -4.445 72.023 -15.428 V-61.566 Q72.023 -67.932 67.469 -72.505 Q62.916 -77.078 56.55 -77.078 Q50.184 -77.078 45.63 -72.505 Q41.077 -67.932 41.077 -61.566 V-10.394 L52.862 -22.179 L60.851 -14.19 L35.738 10.923 Z"/></g><g id="Regular-L" transform="matrix(1 0 0 1 1378.56 1556)"><path d="M37.087 9.92  12.9 -14.267  20.156 -21.524  32.25 -9.43 V-61.836 Q32.25 -72.317 39.506 -79.574 Q46.763 -86.83 57.244 -86.83 Q67.725 -86.83 74.981 -79.574 Q82.237 -72.317 82.237 -61.836 V-15.235 Q82.237 -8.946 86.752 -4.431 Q91.267 0.084 97.556 0.084 Q103.845 0.084 108.36 -4.431 Q112.875 -8.946 112.875 -15.235 V-67.48 L100.781 -55.386 L93.525 -62.642 L117.713 -86.83 L141.9 -62.642 L134.644 -55.386 L122.55 -67.48 V-15.235 Q122.55 -4.754 115.294 2.503 Q108.038 9.759 97.556 9.759 Q87.075 9.759 79.819 2.503 Q72.562 -4.754 72.562 -15.235 V-61.836 Q72.562 -68.125 68.047 -72.64 Q63.532 -77.155 57.244 -77.155 Q50.955 -77.155 46.44 -72.64 Q41.925 -68.125 41.925 -61.836 V-9.43 L54.019 -21.524 L61.275 -14.267 L37.087 9.92 Z"/></g><g id="Light-L" transform="matrix(1 0 0 1 1082.77 1556)"><path d="M38.514 6.695  16.125 -15.694  21.645 -21.152  34.855 -7.942 V-60.472 Q34.855 -70.147 41.553 -76.845 Q48.251 -83.543 57.988 -83.543 Q67.663 -83.543 74.361 -76.845 Q81.059 -70.147 81.059 -60.472 V-16.538 Q81.059 -10.001 85.698 -5.362 Q90.337 -0.722 96.874 -0.722 Q103.349 -0.722 107.988 -5.362 Q112.627 -10.001 112.627 -16.538 V-68.907 L99.417 -55.696 L93.897 -61.154 L116.286 -83.543 L138.675 -61.154 L133.155 -55.696 L119.945 -68.907 V-16.538 Q119.945 -6.8 113.247 -0.102 Q106.549 6.596 96.874 6.596 Q87.137 6.596 80.439 -0.102 Q73.741 -6.8 73.741 -16.538 V-60.472 Q73.741 -66.947 69.102 -71.586 Q64.463 -76.225 57.988 -76.225 Q51.451 -76.225 46.812 -71.586 Q42.173 -66.947 42.173 -60.472 V-7.942 L55.383 -21.152 L60.903 -15.694 L38.514 6.695 Z"/></g><g id="Thin-L" transform="matrix(1 0 0 1 787.282 1556)"><path d="M39.94 3.47  19.35 -17.12  23.133 -20.78  37.46 -6.453 V-59.107 Q37.46 -67.976 43.599 -74.116 Q49.739 -80.256 58.732 -80.256 Q67.601 -80.256 73.741 -74.116 Q79.881 -67.976 79.881 -59.107 V-17.84 Q79.881 -11.055 84.644 -6.292 Q89.407 -1.529 96.192 -1.529 Q102.853 -1.529 107.616 -6.292 Q112.379 -11.055 112.379 -17.84 V-70.333 L98.052 -56.006 L94.269 -59.666 L114.86 -80.256 L135.45 -59.666 L131.667 -56.006 L117.34 -70.333 V-17.84 Q117.34 -8.847 111.201 -2.707 Q105.061 3.433 96.192 3.433 Q87.199 3.433 81.059 -2.707 Q74.919 -8.847 74.919 -17.84 V-59.107 Q74.919 -65.768 70.156 -70.531 Q65.393 -75.294 58.732 -75.294 Q51.947 -75.294 47.184 -70.531 Q42.421 -65.768 42.421 -59.107 V-6.453 L56.748 -20.78 L60.531 -17.12 L39.94 3.47 Z"/></g><g id="Ultralight-L" transform="matrix(1 0 0 1 491.205 1556)"><path d="M40.796 1.535  21.285 -17.976  24.026 -20.556  39.023 -5.56 V-58.289 Q39.023 -66.674 44.828 -72.479 Q50.633 -78.284 59.179 -78.284 Q67.564 -78.284 73.369 -72.479 Q79.174 -66.674 79.174 -58.289 V-18.621 Q79.174 -11.687 84.011 -6.85 Q88.849 -2.012 95.782 -2.012 Q102.555 -2.012 107.392 -6.85 Q112.23 -11.687 112.23 -18.621 V-71.189 L97.234 -56.192 L94.493 -58.772 L114.004 -78.284 L133.515 -58.772 L130.774 -56.192 L115.778 -71.189 V-18.621 Q115.778 -10.075 109.972 -4.27 Q104.168 1.535 95.782 1.535 Q87.236 1.535 81.431 -4.27 Q75.626 -10.075 75.626 -18.621 V-58.289 Q75.626 -65.061 70.789 -69.899 Q65.951 -74.736 59.179 -74.736 Q52.245 -74.736 47.407 -69.899 Q42.57 -65.061 42.57 -58.289 V-5.56 L57.566 -20.556 L60.308 -17.976 L40.796 1.535 Z"/></g><g id="Bold-M" transform="matrix(1 0 0 1 2281.8 1126)"><path d="M24.125 4.145  0 -19.98  10.25 -30.23  16.875 -23.605 V-54.105 Q16.875 -64.605 24.188 -71.98 Q31.5 -79.355 42 -79.355 Q52.5 -79.355 59.812 -71.98 Q67.125 -64.605 67.125 -54.105 V-20.98 Q67.125 -16.605 70.312 -13.605 Q73.5 -10.605 77.875 -10.605 Q82.25 -10.605 85.438 -13.605 Q88.625 -16.605 88.625 -20.98 V-51.855 L82 -45.105 L71.875 -55.48 L95.875 -79.48 L120 -55.355 L109.75 -45.105 L103.125 -51.855 V-20.98 Q103.125 -10.48 95.75 -3.23 Q88.375 4.02 77.875 4.02 Q67.375 4.02 60 -3.23 Q52.625 -10.48 52.625 -20.98 V-54.105 Q52.625 -58.48 49.5 -61.667 Q46.375 -64.855 42 -64.855 Q37.625 -64.855 34.5 -61.667 Q31.375 -58.48 31.375 -54.105 V-23.605 L38 -30.23 L48.125 -19.855 L24.125 4.145 Z"/></g><g id="Semibold-M" transform="matrix(1 0 0 1 1985.97 1126)"><path d="M26.679 2.243  4.348 -20.089  13.185 -29.034  20.407 -21.812 V-54.594 Q20.407 -64.116 27.095 -70.839 Q33.782 -77.562 43.304 -77.562 Q52.826 -77.562 59.514 -70.839 Q66.201 -64.116 66.201 -54.594 V-20.654 Q66.201 -16.388 69.28 -13.415 Q72.359 -10.442 76.625 -10.442 Q80.891 -10.442 83.97 -13.415 Q87.049 -16.388 87.049 -20.654 V-53.648 L79.826 -46.355 L71.06 -55.371 L93.321 -77.632 L115.653 -55.301 L106.815 -46.355 L99.593 -53.648 V-20.654 Q99.593 -11.132 92.87 -4.48 Q86.147 2.172 76.625 2.172 Q67.103 2.172 60.38 -4.48 Q53.657 -11.132 53.657 -20.654 V-54.594 Q53.657 -58.86 50.614 -61.939 Q47.571 -65.018 43.304 -65.018 Q39.038 -65.018 35.995 -61.939 Q32.951 -58.86 32.951 -54.594 V-21.812 L40.174 -29.034 L48.94 -20.018 L26.679 2.243 Z"/></g><g id="Medium-M" transform="matrix(1 0 0 1 1689.91 1126)"><path d="M28.595 0.816  7.609 -20.17  15.386 -28.138  23.057 -20.466 V-54.961 Q23.057 -63.749 29.276 -69.983 Q35.495 -76.216 44.283 -76.216 Q53.071 -76.216 59.289 -69.983 Q65.508 -63.749 65.508 -54.961 V-20.409 Q65.508 -16.225 68.505 -13.272 Q71.503 -10.32 75.688 -10.32 Q79.872 -10.32 82.87 -13.272 Q85.867 -16.225 85.867 -20.409 V-54.994 L78.196 -47.292 L70.448 -55.29 L91.405 -76.246 L112.391 -55.26 L104.614 -47.292 L96.943 -54.994 V-20.409 Q96.943 -11.621 90.709 -5.417 Q84.476 0.786 75.688 0.786 Q66.9 0.786 60.666 -5.417 Q54.432 -11.621 54.432 -20.409 V-54.961 Q54.432 -59.146 51.45 -62.143 Q48.467 -65.14 44.283 -65.14 Q40.098 -65.14 37.115 -62.143 Q34.133 -59.146 34.133 -54.961 V-20.466 L41.804 -28.138 L49.552 -20.14 L28.595 0.816 Z"/></g><g id="Regular-M" transform="matrix(1 0 0 1 1394.06 1126)"><path d="M30 -0.23  10 -20.23  17 -27.48  25 -19.48 V-55.23 Q25 -63.48 30.875 -69.355 Q36.75 -75.23 45 -75.23 Q53.25 -75.23 59.125 -69.355 Q65 -63.48 65 -55.23 V-20.23 Q65 -16.105 67.938 -13.167 Q70.875 -10.23 75 -10.23 Q79.125 -10.23 82.062 -13.167 Q85 -16.105 85 -20.23 V-55.98 L77 -47.98 L70 -55.23 L90 -75.23 L110 -55.23 L103 -47.98 L95 -55.98 V-20.23 Q95 -11.98 89.125 -6.105 Q83.25 -0.23 75 -0.23 Q66.75 -0.23 60.875 -6.105 Q55 -11.98 55 -20.23 V-55.23 Q55 -59.355 52.062 -62.292 Q49.125 -65.23 45 -65.23 Q40.875 -65.23 37.938 -62.292 Q35 -59.355 35 -55.23 V-19.48 L43 -27.48 L50 -20.23 L30 -0.23 Z"/></g><g id="Light-M" transform="matrix(1 0 0 1 1098.18 1126)"><path d="M30.769 -2.73  12.5 -20.999  17.769 -26.422  27.019 -17.172 V-54.316 Q27.019 -61.941 32.389 -67.312 Q37.76 -72.682 45.385 -72.682 Q53.01 -72.682 58.38 -67.312 Q63.75 -61.941 63.75 -54.316 V-21.095 Q63.75 -16.586 66.928 -13.408 Q70.106 -10.23 74.615 -10.23 Q79.125 -10.23 82.303 -13.408 Q85.481 -16.586 85.481 -21.095 V-58.24 L76.231 -48.99 L70.962 -54.413 L89.231 -72.682 L107.5 -54.413 L102.231 -48.99 L92.981 -58.24 V-21.095 Q92.981 -13.47 87.611 -8.1 Q82.24 -2.73 74.615 -2.73 Q66.99 -2.73 61.62 -8.1 Q56.25 -13.47 56.25 -21.095 V-54.316 Q56.25 -58.826 53.072 -62.004 Q49.894 -65.182 45.385 -65.182 Q40.875 -65.182 37.697 -62.004 Q34.519 -58.826 34.519 -54.316 V-17.172 L43.769 -26.422 L49.038 -20.999 L30.769 -2.73 Z"/></g><g id="Thin-M" transform="matrix(1 0 0 1 802.565 1126)"><path d="M31.538 -5.23  15 -21.768  18.538 -25.365  29.038 -14.865 V-53.403 Q29.038 -60.403 33.904 -65.268 Q38.769 -70.134 45.769 -70.134 Q52.769 -70.134 57.635 -65.268 Q62.5 -60.403 62.5 -53.403 V-21.961 Q62.5 -17.066 65.918 -13.648 Q69.337 -10.23 74.231 -10.23 Q79.125 -10.23 82.543 -13.648 Q85.962 -17.066 85.962 -21.961 V-60.499 L75.462 -49.999 L71.923 -53.595 L88.462 -70.134 L105 -53.595 L101.462 -49.999 L90.962 -60.499 V-21.961 Q90.962 -14.961 86.096 -10.095 Q81.231 -5.23 74.231 -5.23 Q67.231 -5.23 62.365 -10.095 Q57.5 -14.961 57.5 -21.961 V-53.403 Q57.5 -58.297 54.082 -61.716 Q50.663 -65.134 45.769 -65.134 Q40.875 -65.134 37.457 -61.716 Q34.038 -58.297 34.038 -53.403 V-14.865 L44.538 -25.365 L48.077 -21.768 L31.538 -5.23 Z"/></g><g id="Ultralight-M" transform="matrix(1 0 0 1 506.415 1126)"><path d="M32 -6.73  16.5 -22.23  19 -24.73  30.25 -13.48 V-52.855 Q30.25 -59.48 34.812 -64.042 Q39.375 -68.605 46 -68.605 Q52.625 -68.605 57.188 -64.042 Q61.75 -59.48 61.75 -52.855 V-22.48 Q61.75 -17.355 65.312 -13.792 Q68.875 -10.23 74 -10.23 Q79.125 -10.23 82.688 -13.792 Q86.25 -17.355 86.25 -22.48 V-61.855 L75 -50.605 L72.5 -53.105 L88 -68.605 L103.5 -53.105 L101 -50.605 L89.75 -61.855 V-22.48 Q89.75 -15.855 85.188 -11.292 Q80.625 -6.73 74 -6.73 Q67.375 -6.73 62.812 -11.292 Q58.25 -15.855 58.25 -22.48 V-52.855 Q58.25 -57.98 54.688 -61.542 Q51.125 -65.105 46 -65.105 Q40.875 -65.105 37.312 -61.542 Q33.75 -57.98 33.75 -52.855 V-13.48 L45 -24.73 L47.5 -22.23 L32 -6.73 Z"/></g><g id="Bold-S" transform="matrix(1 0 0 1 2294.23 696)"><path d="M19.035 -3.374  1.578 -20.831  9.172 -28.228  13.709 -23.691 V-47.361 Q13.709 -55.547 19.331 -61.218 Q24.952 -66.889 33.138 -66.889 Q41.324 -66.889 46.946 -61.218 Q52.567 -55.547 52.567 -47.361 V-22.803 Q52.567 -19.154 55.181 -16.688 Q57.794 -14.223 61.443 -14.223 Q65.093 -14.223 67.706 -16.688 Q70.32 -19.154 70.32 -22.803 V-46.769 L65.783 -42.134 L58.287 -49.629 L75.645 -66.987 L93.102 -49.531 L85.508 -42.134 L80.971 -46.769 V-22.803 Q80.971 -14.617 75.3 -9.045 Q69.629 -3.473 61.443 -3.473 Q53.258 -3.473 47.587 -9.045 Q41.916 -14.617 41.916 -22.803 V-47.361 Q41.916 -51.01 39.351 -53.624 Q36.787 -56.237 33.138 -56.237 Q29.489 -56.237 26.925 -53.624 Q24.36 -51.01 24.36 -47.361 V-23.691 L28.897 -28.228 L36.393 -20.732 L19.035 -3.374 Z"/></g><g id="Semibold-S" transform="matrix(1 0 0 1 1998.1 696)"><path d="M21.05 -4.875  5.008 -20.917  11.488 -27.284  16.496 -22.276 V-47.747 Q16.496 -55.161 21.624 -60.317 Q26.753 -65.474 34.167 -65.474 Q41.581 -65.474 46.71 -60.317 Q51.838 -55.161 51.838 -47.747 V-22.546 Q51.838 -18.983 54.366 -16.538 Q56.894 -14.094 60.457 -14.094 Q64.021 -14.094 66.548 -16.538 Q69.076 -18.983 69.076 -22.546 V-48.184 L64.068 -43.12 L57.644 -49.543 L73.63 -65.529 L89.672 -49.488 L83.192 -43.12 L78.184 -48.184 V-22.546 Q78.184 -15.132 73.028 -10.031 Q67.871 -4.931 60.457 -4.931 Q53.043 -4.931 47.887 -10.031 Q42.73 -15.132 42.73 -22.546 V-47.747 Q42.73 -51.31 40.23 -53.838 Q37.73 -56.366 34.167 -56.366 Q30.604 -56.366 28.104 -53.838 Q25.604 -51.31 25.604 -47.747 V-22.276 L30.612 -27.284 L37.036 -20.861 L21.05 -4.875 Z"/></g><g id="Medium-S" transform="matrix(1 0 0 1 1701.85 696)"><path d="M22.562 -6.001  7.581 -20.981  13.224 -26.577  18.586 -21.214 V-48.036 Q18.586 -54.871 23.345 -59.642 Q28.104 -64.412 34.939 -64.412 Q41.774 -64.412 46.533 -59.642 Q51.291 -54.871 51.291 -48.036 V-22.353 Q51.291 -18.854 53.755 -16.426 Q56.218 -13.998 59.717 -13.998 Q63.216 -13.998 65.68 -16.426 Q68.143 -18.854 68.143 -22.353 V-49.246 L62.781 -43.86 L57.162 -49.479 L72.118 -64.436 L87.099 -49.456 L81.456 -43.86 L76.094 -49.246 V-22.353 Q76.094 -15.518 71.323 -10.771 Q66.553 -6.024 59.717 -6.024 Q52.882 -6.024 48.112 -10.771 Q43.341 -15.518 43.341 -22.353 V-48.036 Q43.341 -51.535 40.89 -53.999 Q38.438 -56.462 34.939 -56.462 Q31.44 -56.462 28.988 -53.999 Q26.537 -51.535 26.537 -48.036 V-21.214 L31.899 -26.577 L37.518 -20.957 L22.562 -6.001 Z"/></g><g id="Regular-S" transform="matrix(1 0 0 1 1405.73 696)"><path d="M23.67 -6.826  9.468 -21.028  14.498 -26.058  20.12 -20.436 V-48.248 Q20.12 -54.659 24.607 -59.147 Q29.094 -63.634 35.505 -63.634 Q41.916 -63.634 46.403 -59.147 Q50.891 -54.659 50.891 -48.248 V-22.211 Q50.891 -18.76 53.307 -16.343 Q55.723 -13.927 59.175 -13.927 Q62.627 -13.927 65.043 -16.343 Q67.46 -18.76 67.46 -22.211 V-50.024 L61.838 -44.402 L56.808 -49.432 L71.01 -63.634 L85.212 -49.432 L80.182 -44.402 L74.561 -50.024 V-22.211 Q74.561 -15.801 70.073 -11.313 Q65.586 -6.826 59.175 -6.826 Q52.764 -6.826 48.277 -11.313 Q43.79 -15.801 43.79 -22.211 V-48.248 Q43.79 -51.7 41.373 -54.117 Q38.957 -56.533 35.505 -56.533 Q32.053 -56.533 29.637 -54.117 Q27.221 -51.7 27.221 -48.248 V-20.436 L32.842 -26.058 L37.872 -21.028 L23.67 -6.826 Z"/></g><g id="Light-S" transform="matrix(1 0 0 1 1109.75 696)"><path d="M24.277 -8.799  11.441 -21.635  15.105 -25.223  21.713 -18.615 V-47.528 Q21.713 -53.445 25.802 -57.534 Q29.891 -61.623 35.808 -61.623 Q41.726 -61.623 45.815 -57.534 Q49.904 -53.445 49.904 -47.528 V-22.894 Q49.904 -19.139 52.51 -16.533 Q55.116 -13.927 58.872 -13.927 Q62.627 -13.927 65.233 -16.533 Q67.839 -19.139 67.839 -22.894 V-51.807 L61.231 -45.199 L57.567 -48.787 L70.403 -61.623 L83.239 -48.787 L79.575 -45.199 L72.967 -51.807 V-22.894 Q72.967 -16.977 68.878 -12.888 Q64.789 -8.799 58.872 -8.799 Q52.954 -8.799 48.865 -12.888 Q44.776 -16.977 44.776 -22.894 V-47.528 Q44.776 -51.283 42.17 -53.889 Q39.564 -56.495 35.808 -56.495 Q32.053 -56.495 29.447 -53.889 Q26.841 -51.283 26.841 -47.528 V-18.615 L33.449 -25.223 L37.113 -21.635 L24.277 -8.799 Z"/></g><g id="Thin-S" transform="matrix(1 0 0 1 814.015 696)"><path d="M24.884 -10.771  13.413 -22.242  15.712 -24.389  23.306 -16.795 V-46.807 Q23.306 -52.231 26.997 -55.922 Q30.688 -59.613 36.112 -59.613 Q41.536 -59.613 45.227 -55.922 Q48.918 -52.231 48.918 -46.807 V-23.577 Q48.918 -19.518 51.714 -16.723 Q54.509 -13.927 58.568 -13.927 Q62.627 -13.927 65.422 -16.723 Q68.218 -19.518 68.218 -23.577 V-53.589 L60.624 -45.995 L58.325 -48.142 L69.796 -59.613 L81.267 -48.142 L78.968 -45.995 L71.374 -53.589 V-23.577 Q71.374 -18.153 67.683 -14.462 Q63.992 -10.771 58.568 -10.771 Q53.144 -10.771 49.453 -14.462 Q45.762 -18.153 45.762 -23.577 V-46.807 Q45.762 -50.866 42.966 -53.662 Q40.171 -56.457 36.112 -56.457 Q32.053 -56.457 29.258 -53.662 Q26.462 -50.866 26.462 -46.807 V-16.795 L34.056 -24.389 L36.355 -22.242 L24.884 -10.771 Z"/></g><g id="Ultralight-S" transform="matrix(1 0 0 1 517.792 696)"><path d="M25.248 -11.954  14.597 -22.606  16.076 -23.888  24.262 -15.702 V-46.375 Q24.262 -51.503 27.714 -54.955 Q31.166 -58.407 36.294 -58.407 Q41.422 -58.407 44.874 -54.955 Q48.326 -51.503 48.326 -46.375 V-23.987 Q48.326 -19.746 51.236 -16.836 Q54.145 -13.927 58.386 -13.927 Q62.627 -13.927 65.536 -16.836 Q68.446 -19.746 68.446 -23.987 V-54.659 L60.26 -46.473 L58.781 -47.755 L69.432 -58.407 L80.084 -47.755 L78.604 -46.473 L70.418 -54.659 V-23.987 Q70.418 -18.858 66.966 -15.406 Q63.515 -11.954 58.386 -11.954 Q53.258 -11.954 49.806 -15.406 Q46.354 -18.858 46.354 -23.987 V-46.375 Q46.354 -50.615 43.444 -53.525 Q40.535 -56.434 36.294 -56.434 Q32.053 -56.434 29.144 -53.525 Q26.234 -50.615 26.234 -46.375 V-15.702 L34.42 -23.888 L35.9 -22.606 L25.248 -11.954 Z"/></g></g></svg>