<svg xmlns="http://www.w3.org/2000/svg" version="1.1" width="3300" height="2000"><g id="Notes"><style>
    text {
      font-family: monospace;
      text-anchor: middle;
    }
    text.emphasis {
      font-weight:bold;
    }
    text.lanchor {
      text-anchor: start;
    }
  </style><rect height="2200" id="artboard" fill="white" width="3300" x="0" y="0"/><line id="" style="fill:none;stroke:black;stroke-width:0.5;" x1="263" x2="3036" y1="292" y2="292"/><text class="lanchor emphasis" transform="matrix(1 0 0 1 263 322)">Weight/Scale Variations</text><text transform="matrix(1 0 0 1 559.711 322)">Ultralight</text><text transform="matrix(1 0 0 1 856.422 322)">Thin</text><text transform="matrix(1 0 0 1 1153.13 322)">Light</text><text transform="matrix(1 0 0 1 1449.84 322)">Regular</text><text transform="matrix(1 0 0 1 1746.56 322)">Medium</text><text transform="matrix(1 0 0 1 2043.27 322)">Semibold</text><text transform="matrix(1 0 0 1 2339.98 322)">Bold</text><text transform="matrix(1 0 0 1 2636.69 322)">Heavy</text><text transform="matrix(1 0 0 1 2933.4 322)">Black</text><text id="template-version" style="text-anchor: end;" transform="matrix(1 0 0 1 3036 1933)">Template v.1.0</text><text class="lanchor" transform="matrix(1 0 0 1 263 726)">Small</text><text class="lanchor" transform="matrix(1 0 0 1 263 1156)">Medium</text><text class="lanchor" transform="matrix(1 0 0 1 263 1586)">Large</text></g><g id="Guides"><g id="H-reference" style="fill:#27AAE1;stroke:none;" transform="matrix(1 0 0 1 339 696)"><path d="M 54.9316 0 L 57.666 0 L 30.5664 -70.459 L 28.0762 -70.459 L 0.976562 0 L 3.66211 0 L 12.9395 -24.4629 L 45.7031 -24.4629 Z M 29.1992 -67.0898 L 29.4434 -67.0898 L 44.8242 -26.709 L 13.8184 -26.709 Z"/></g><line id="Baseline-S" style="fill:none;stroke:#27AAE1;opacity:1;stroke-width:0.577;" x1="263" x2="3036" y1="696" y2="696"/><line id="Capline-S" style="fill:none;stroke:#27AAE1;opacity:1;stroke-width:0.577;" x1="263" x2="3036" y1="625.541" y2="625.541"/><g id="H-reference" style="fill:#27AAE1;stroke:none;" transform="matrix(1 0 0 1 339 1126)"><path d="M 54.9316 0 L 57.666 0 L 30.5664 -70.459 L 28.0762 -70.459 L 0.976562 0 L 3.66211 0 L 12.9395 -24.4629 L 45.7031 -24.4629 Z M 29.1992 -67.0898 L 29.4434 -67.0898 L 44.8242 -26.709 L 13.8184 -26.709 Z"/></g><line id="Baseline-M" style="fill:none;stroke:#27AAE1;opacity:1;stroke-width:0.577;" x1="263" x2="3036" y1="1126" y2="1126"/><line id="Capline-M" style="fill:none;stroke:#27AAE1;opacity:1;stroke-width:0.577;" x1="263" x2="3036" y1="1055.54" y2="1055.54"/><g id="H-reference" style="fill:#27AAE1;stroke:none;" transform="matrix(1 0 0 1 339 1556)"><path d="M 54.9316 0 L 57.666 0 L 30.5664 -70.459 L 28.0762 -70.459 L 0.976562 0 L 3.66211 0 L 12.9395 -24.4629 L 45.7031 -24.4629 Z M 29.1992 -67.0898 L 29.4434 -67.0898 L 44.8242 -26.709 L 13.8184 -26.709 Z"/></g><line id="Baseline-L" style="fill:none;stroke:#27AAE1;opacity:1;stroke-width:0.577;" x1="263" x2="3036" y1="1556" y2="1556"/><line id="Capline-L" style="fill:none;stroke:#27AAE1;opacity:1;stroke-width:0.577;" x1="263" x2="3036" y1="1485.54" y2="1485.54"/><rect height="119.336" id="left-margin" style="fill:darkred;stroke:none;opacity:0.4;" width="12.4512" x="1394.06" y="1030.79"/><rect height="119.336" id="right-margin" style="fill:darkgreen;stroke:none;opacity:0.4;" width="12.4512" x="1502.5112" y="1030.79"/><rect x="1406.5112" y="1045" width="96" height="96" fill="none" stroke="blue" stroke-dasharray="5"/><rect x="1394.06" y="1030.79" width="120.9024" height="119.336" fill="none" stroke="blue"/></g><g id="Symbols"><g id="Bold-L" transform="matrix(1 0 0 1 2266 1556)"><path d="M64.197 3.954 Q72.401 3.954 78.045 -1.784 Q83.689 -7.522 83.689 -15.719 V-65.061 H103.361 V-74.736 H76.433 V-31.844 Q73.691 -33.456 70.547 -34.424 Q67.403 -35.391 64.177 -35.391 Q55.981 -35.391 50.243 -29.567 Q44.505 -23.743 44.505 -15.7 Q44.505 -7.495 50.248 -1.771 Q55.992 3.954 64.197 3.954 Z M77.465 33.301 Q63.135 33.301 50.677 27.966 Q38.22 22.632 28.879 13.291 Q19.538 3.95 14.204 -8.497 Q8.869 -20.944 8.869 -35.288 Q8.869 -49.633 14.204 -62.102 Q19.538 -74.571 28.854 -83.84 Q38.17 -93.109 50.628 -98.516 Q63.087 -103.922 77.445 -103.922 Q91.803 -103.922 104.291 -98.528 Q116.779 -93.134 126.036 -83.886 Q135.293 -74.639 140.693 -62.137 Q146.093 -49.636 146.093 -35.273 Q146.093 -20.92 140.686 -8.466 Q135.279 3.989 126.01 13.281 Q116.741 22.572 104.268 27.937 Q91.796 33.301 77.465 33.301 Z M77.481 18.144 Q99.653 18.144 115.213 2.604 Q130.774 -12.936 130.774 -35.311 Q130.774 -57.482 115.243 -73.043 Q99.713 -88.604 77.319 -88.604 Q55.148 -88.604 39.587 -73.073 Q24.026 -57.543 24.026 -35.149 Q24.026 -12.977 39.566 2.583 Q55.106 18.144 77.481 18.144 Z"/></g><g id="Semibold-L" transform="matrix(1 0 0 1 1970.27 1556)"><path d="M64.197 4.304 Q72.401 4.304 78.045 -1.434 Q83.689 -7.171 83.689 -15.368 V-65.342 H103.361 V-75.017 H76.433 V-31.493 Q73.691 -33.176 70.547 -34.108 Q67.403 -35.041 64.177 -35.041 Q55.981 -35.041 50.243 -29.252 Q44.505 -23.463 44.505 -15.349 Q44.505 -7.144 50.248 -1.42 Q55.992 4.304 64.197 4.304 Z M77.455 31.549 Q63.555 31.549 51.413 26.325 Q39.27 21.101 30.169 12.001 Q21.069 2.9 15.845 -9.242 Q10.621 -21.384 10.621 -35.298 Q10.621 -49.212 15.845 -61.367 Q21.069 -73.521 30.155 -82.546 Q39.241 -91.571 51.39 -96.835 Q63.539 -102.1 77.46 -102.1 Q91.382 -102.1 103.547 -96.842 Q115.713 -91.585 124.731 -82.572 Q133.749 -73.559 139.009 -61.376 Q144.27 -49.192 144.27 -35.273 Q144.27 -21.36 139.005 -9.219 Q133.741 2.922 124.716 11.982 Q115.691 21.042 103.523 26.295 Q91.356 31.549 77.455 31.549 Z M77.481 18.775 Q99.933 18.775 115.669 3.015 Q131.405 -12.744 131.405 -35.311 Q131.405 -57.763 115.699 -73.499 Q99.993 -89.235 77.354 -89.235 Q54.937 -89.235 39.166 -73.529 Q23.395 -57.823 23.395 -35.184 Q23.395 -12.767 39.155 3.004 Q54.914 18.775 77.481 18.775 Z"/></g><g id="Medium-L" transform="matrix(1 0 0 1 1674.31 1556)"><path d="M64.197 4.567 Q72.401 4.567 78.045 -1.171 Q83.689 -6.908 83.689 -15.105 V-65.552 H103.361 V-75.227 H76.433 V-31.23 Q73.691 -32.966 70.547 -33.872 Q67.403 -34.778 64.177 -34.778 Q55.981 -34.778 50.243 -29.015 Q44.505 -23.253 44.505 -15.086 Q44.505 -6.882 50.248 -1.157 Q55.992 4.567 64.197 4.567 Z M77.448 30.234 Q63.871 30.234 51.964 25.094 Q40.058 19.953 31.137 11.033 Q22.217 2.112 17.076 -9.801 Q11.936 -21.714 11.936 -35.305 Q11.936 -48.897 17.076 -60.815 Q22.217 -72.734 31.131 -81.576 Q40.045 -90.417 51.962 -95.575 Q63.878 -100.733 77.472 -100.733 Q91.067 -100.733 102.99 -95.578 Q114.913 -90.423 123.752 -81.586 Q132.591 -72.75 137.747 -60.804 Q142.903 -48.858 142.903 -35.273 Q142.903 -21.69 137.745 -9.784 Q132.587 2.122 123.746 11.008 Q114.904 19.894 102.965 25.064 Q91.026 30.234 77.448 30.234 Z M77.481 19.248 Q100.143 19.248 116.011 3.324 Q131.878 -12.6 131.878 -35.311 Q131.878 -57.973 116.041 -73.841 Q100.204 -89.708 77.381 -89.708 Q54.779 -89.708 38.851 -73.871 Q22.922 -58.034 22.922 -35.211 Q22.922 -12.609 38.846 3.319 Q54.77 19.248 77.481 19.248 Z"/></g><g id="Regular-L" transform="matrix(1 0 0 1 1378.56 1556)"><path d="M64.197 4.76 Q72.401 4.76 78.045 -0.978 Q83.689 -6.716 83.689 -14.912 V-65.706 H103.361 V-75.381 H76.433 V-31.037 Q73.691 -32.811 70.547 -33.698 Q67.403 -34.585 64.177 -34.585 Q55.981 -34.585 50.243 -28.842 Q44.505 -23.098 44.505 -14.893 Q44.505 -6.689 50.248 -0.964 Q55.992 4.76 64.197 4.76 Z M77.443 29.27 Q64.102 29.27 52.369 24.191 Q40.635 19.111 31.847 10.323 Q23.059 1.535 17.979 -10.211 Q12.9 -21.956 12.9 -35.311 Q12.9 -48.665 17.979 -60.411 Q23.059 -72.156 31.847 -80.864 Q40.635 -89.571 52.381 -94.651 Q64.126 -99.73 77.481 -99.73 Q90.835 -99.73 102.581 -94.651 Q114.326 -89.571 123.034 -80.864 Q131.741 -72.156 136.821 -60.385 Q141.9 -48.614 141.9 -35.273 Q141.9 -21.932 136.821 -10.199 Q131.741 1.535 123.034 10.293 Q114.326 19.052 102.555 24.161 Q90.784 29.27 77.443 29.27 Z M77.481 19.595 Q100.297 19.595 116.261 3.551 Q132.225 -12.494 132.225 -35.311 Q132.225 -58.127 116.292 -74.091 Q100.358 -90.055 77.4 -90.055 Q54.664 -90.055 38.619 -74.122 Q22.575 -58.188 22.575 -35.23 Q22.575 -12.494 38.619 3.551 Q54.664 19.595 77.481 19.595 Z"/></g><g id="Light-L" transform="matrix(1 0 0 1 1082.77 1556)"><path d="M64.492 3.396 Q72.277 3.396 77.642 -2.022 Q83.007 -7.439 83.007 -15.161 V-64.962 H102.059 V-74.017 H77.053 V-29.487 Q74.311 -31.509 71.101 -32.644 Q67.891 -33.779 64.488 -33.779 Q56.766 -33.779 51.349 -28.329 Q45.932 -22.879 45.932 -15.156 Q45.932 -7.433 51.35 -2.019 Q56.769 3.396 64.492 3.396 Z M77.454 26.045 Q64.722 26.045 53.605 21.22 Q42.488 16.396 34.134 8.045 Q25.779 -0.307 20.952 -11.431 Q16.125 -22.555 16.125 -35.3 Q16.125 -47.983 20.95 -59.143 Q25.774 -70.303 34.125 -78.577 Q42.477 -86.851 53.601 -91.678 Q64.725 -96.505 77.47 -96.505 Q90.153 -96.505 101.313 -91.68 Q112.473 -86.856 120.747 -78.585 Q129.021 -70.314 133.848 -59.134 Q138.675 -47.953 138.675 -35.284 Q138.675 -22.552 133.85 -11.435 Q129.026 -0.318 120.755 8.007 Q112.484 16.332 101.304 21.188 Q90.123 26.045 77.454 26.045 Z M77.481 18.727 Q99.925 18.727 115.641 2.961 Q131.357 -12.804 131.357 -35.311 Q131.357 -57.755 115.671 -73.471 Q99.986 -89.187 77.4 -89.187 Q54.974 -89.187 39.209 -73.501 Q23.443 -57.816 23.443 -35.23 Q23.443 -12.804 39.209 2.961 Q54.974 18.727 77.481 18.727 Z"/></g><g id="Thin-L" transform="matrix(1 0 0 1 787.282 1556)"><path d="M64.788 2.031 Q72.153 2.031 77.239 -3.066 Q82.324 -8.163 82.324 -15.409 V-64.218 H100.756 V-72.652 H77.673 V-27.937 Q74.932 -30.206 71.655 -31.589 Q68.379 -32.972 64.798 -32.972 Q57.552 -32.972 52.455 -27.817 Q47.358 -22.661 47.358 -15.419 Q47.358 -8.177 52.452 -3.073 Q57.546 2.031 64.788 2.031 Z M77.465 22.82 Q65.342 22.82 54.842 18.25 Q44.342 13.681 36.42 5.766 Q28.498 -2.148 23.924 -12.651 Q19.35 -23.153 19.35 -35.289 Q19.35 -47.301 23.92 -57.875 Q28.489 -68.45 36.404 -76.291 Q44.318 -84.132 54.821 -88.706 Q65.323 -93.28 77.459 -93.28 Q89.471 -93.28 100.045 -88.71 Q110.62 -84.141 118.461 -76.307 Q126.302 -68.473 130.876 -57.883 Q135.45 -47.292 135.45 -35.294 Q135.45 -23.172 130.88 -12.672 Q126.311 -2.172 118.477 5.72 Q110.643 13.613 100.053 18.216 Q89.462 22.82 77.465 22.82 Z M77.481 17.858 Q99.553 17.858 115.021 2.372 Q130.488 -13.114 130.488 -35.311 Q130.488 -57.383 115.051 -72.851 Q99.614 -88.318 77.4 -88.318 Q55.284 -88.318 39.798 -72.881 Q24.312 -57.444 24.312 -35.23 Q24.312 -13.114 39.798 2.372 Q55.284 17.858 77.481 17.858 Z"/></g><g id="Ultralight-L" transform="matrix(1 0 0 1 491.205 1556)"><path d="M64.965 1.213 Q72.079 1.213 76.997 -3.692 Q81.915 -8.597 81.915 -15.557 V-63.771 H99.975 V-71.834 H78.045 V-27.006 Q75.304 -29.425 71.988 -30.957 Q68.672 -32.489 64.984 -32.489 Q58.023 -32.489 53.118 -27.509 Q48.214 -22.529 48.214 -15.577 Q48.214 -8.624 53.113 -3.706 Q58.012 1.213 64.965 1.213 Z M77.471 20.885 Q65.715 20.885 55.584 16.468 Q45.454 12.051 37.792 4.399 Q30.13 -3.253 25.707 -13.383 Q21.285 -23.512 21.285 -35.283 Q21.285 -46.891 25.702 -57.115 Q30.119 -67.338 37.771 -74.919 Q45.423 -82.5 55.553 -86.923 Q65.682 -91.345 77.453 -91.345 Q89.061 -91.345 99.285 -86.928 Q109.508 -82.511 117.089 -74.94 Q124.67 -67.368 129.093 -57.132 Q133.515 -46.896 133.515 -35.301 Q133.515 -23.545 129.098 -13.414 Q124.681 -3.284 117.11 4.348 Q109.538 11.981 99.302 16.433 Q89.066 20.885 77.471 20.885 Z M77.481 17.338 Q99.33 17.338 114.649 2.019 Q129.968 -13.3 129.968 -35.311 Q129.968 -57.16 114.679 -72.479 Q99.39 -87.797 77.4 -87.797 Q55.47 -87.797 40.151 -72.509 Q24.832 -57.22 24.832 -35.23 Q24.832 -13.3 40.151 2.019 Q55.47 17.338 77.481 17.338 Z"/></g><g id="Bold-M" transform="matrix(1 0 0 1 2281.8 1126)"><path d="M50 -5.98 Q56.25 -5.98 60.625 -10.355 Q65 -14.73 65 -20.98 V-54.48 H80 V-64.48 H57.5 V-33.98 Q55.75 -34.98 53.875 -35.48 Q52 -35.98 50 -35.98 Q43.75 -35.98 39.375 -31.605 Q35 -27.23 35 -20.98 Q35 -14.73 39.375 -10.355 Q43.75 -5.98 50 -5.98 Z M60 19.02 Q48.625 19.02 38.752 14.76 Q28.878 10.499 21.575 3.196 Q14.271 -4.108 10.011 -13.982 Q5.75 -23.855 5.75 -35.23 Q5.75 -46.605 10.011 -56.478 Q14.271 -66.352 21.575 -73.655 Q28.878 -80.959 38.752 -85.219 Q48.625 -89.48 60 -89.48 Q71.375 -89.48 81.248 -85.219 Q91.122 -80.959 98.425 -73.655 Q105.729 -66.352 109.99 -56.478 Q114.25 -46.605 114.25 -35.23 Q114.25 -23.855 109.99 -13.982 Q105.729 -4.108 98.425 3.196 Q91.122 10.499 81.248 14.76 Q71.375 19.02 60 19.02 Z M60 3.27 Q76.25 3.27 87.375 -7.855 Q98.5 -18.98 98.5 -35.23 Q98.5 -51.48 87.375 -62.605 Q76.25 -73.73 60 -73.73 Q43.75 -73.73 32.625 -62.605 Q21.5 -51.48 21.5 -35.23 Q21.5 -18.98 32.625 -7.855 Q43.75 3.27 60 3.27 Z"/></g><g id="Semibold-M" transform="matrix(1 0 0 1 1985.97 1126)"><path d="M50 -5.654 Q56.25 -5.654 60.625 -10.029 Q65 -14.404 65 -20.654 V-54.806 H80 V-64.806 H57.5 V-33.654 Q55.75 -34.654 53.875 -35.154 Q52 -35.654 50 -35.654 Q43.75 -35.654 39.375 -31.279 Q35 -26.904 35 -20.654 Q35 -14.404 39.375 -10.029 Q43.75 -5.654 50 -5.654 Z M60 17.172 Q49.06 17.172 39.512 13.052 Q29.964 8.932 22.901 1.869 Q15.838 -5.194 11.718 -14.742 Q7.598 -24.29 7.598 -35.23 Q7.598 -46.17 11.718 -55.718 Q15.838 -65.266 22.901 -72.329 Q29.964 -79.392 39.512 -83.512 Q49.06 -87.632 60 -87.632 Q70.94 -87.632 80.488 -83.512 Q90.036 -79.392 97.099 -72.329 Q104.162 -65.266 108.282 -55.718 Q112.402 -46.17 112.402 -35.23 Q112.402 -24.29 108.282 -14.742 Q104.162 -5.194 97.099 1.869 Q90.036 8.932 80.488 13.052 Q70.94 17.172 60 17.172 Z M60 3.922 Q76.467 3.922 87.81 -7.42 Q99.152 -18.763 99.152 -35.23 Q99.152 -51.697 87.81 -63.04 Q76.467 -74.382 60 -74.382 Q43.533 -74.382 32.19 -63.04 Q20.848 -51.697 20.848 -35.23 Q20.848 -18.763 32.19 -7.42 Q43.533 3.922 60 3.922 Z"/></g><g id="Medium-M" transform="matrix(1 0 0 1 1689.91 1126)"><path d="M50 -5.409 Q56.25 -5.409 60.625 -9.784 Q65 -14.159 65 -20.409 V-55.051 H80 V-65.051 H57.5 V-33.409 Q55.75 -34.409 53.875 -34.909 Q52 -35.409 50 -35.409 Q43.75 -35.409 39.375 -31.034 Q35 -26.659 35 -20.409 Q35 -14.159 39.375 -9.784 Q43.75 -5.409 50 -5.409 Z M60 15.786 Q49.386 15.786 40.082 11.772 Q30.778 7.757 23.895 0.875 Q17.013 -6.008 12.998 -15.312 Q8.984 -24.616 8.984 -35.23 Q8.984 -45.844 12.998 -55.148 Q17.013 -64.452 23.895 -71.334 Q30.778 -78.217 40.082 -82.232 Q49.386 -86.246 60 -86.246 Q70.614 -86.246 79.918 -82.232 Q89.222 -78.217 96.105 -71.334 Q102.987 -64.452 107.002 -55.148 Q111.016 -45.844 111.016 -35.23 Q111.016 -24.616 107.002 -15.312 Q102.987 -6.008 96.105 0.875 Q89.222 7.757 79.918 11.772 Q70.614 15.786 60 15.786 Z M60 4.411 Q76.63 4.411 88.136 -7.094 Q99.641 -18.6 99.641 -35.23 Q99.641 -51.86 88.136 -63.366 Q76.63 -74.871 60 -74.871 Q43.37 -74.871 31.864 -63.366 Q20.359 -51.86 20.359 -35.23 Q20.359 -18.6 31.864 -7.094 Q43.37 4.411 60 4.411 Z"/></g><g id="Regular-M" transform="matrix(1 0 0 1 1394.06 1126)"><path d="M50 -5.23 Q56.25 -5.23 60.625 -9.605 Q65 -13.98 65 -20.23 V-55.23 H80 V-65.23 H57.5 V-33.23 Q55.75 -34.23 53.875 -34.73 Q52 -35.23 50 -35.23 Q43.75 -35.23 39.375 -30.855 Q35 -26.48 35 -20.23 Q35 -13.98 39.375 -9.605 Q43.75 -5.23 50 -5.23 Z M60 14.77 Q49.625 14.77 40.5 10.833 Q31.375 6.895 24.625 0.145 Q17.875 -6.605 13.938 -15.73 Q10 -24.855 10 -35.23 Q10 -45.605 13.938 -54.73 Q17.875 -63.855 24.625 -70.605 Q31.375 -77.355 40.5 -81.292 Q49.625 -85.23 60 -85.23 Q70.375 -85.23 79.5 -81.292 Q88.625 -77.355 95.375 -70.605 Q102.125 -63.855 106.062 -54.73 Q110 -45.605 110 -35.23 Q110 -24.855 106.062 -15.73 Q102.125 -6.605 95.375 0.145 Q88.625 6.895 79.5 10.833 Q70.375 14.77 60 14.77 Z M60 4.77 Q76.75 4.77 88.375 -6.855 Q100 -18.48 100 -35.23 Q100 -51.98 88.375 -63.605 Q76.75 -75.23 60 -75.23 Q43.25 -75.23 31.625 -63.605 Q20 -51.98 20 -35.23 Q20 -18.48 31.625 -6.855 Q43.25 4.77 60 4.77 Z"/></g><g id="Light-M" transform="matrix(1 0 0 1 1098.18 1126)"><path d="M50.181 -5.999 Q56.106 -5.999 60.264 -10.15 Q64.423 -14.3 64.423 -20.23 V-55.615 H79.038 V-64.461 H58.462 V-31.691 Q56.615 -32.98 54.521 -33.72 Q52.426 -34.461 50.192 -34.461 Q44.263 -34.461 40.112 -30.313 Q35.962 -26.166 35.962 -20.241 Q35.962 -14.317 40.109 -10.158 Q44.256 -5.999 50.181 -5.999 Z M60.008 12.27 Q50.154 12.27 41.483 8.53 Q32.812 4.79 26.398 -1.621 Q19.983 -8.033 16.242 -16.7 Q12.5 -25.367 12.5 -35.222 Q12.5 -45.076 16.24 -53.747 Q19.98 -62.418 26.391 -68.832 Q32.803 -75.247 41.47 -78.988 Q50.137 -82.73 59.992 -82.73 Q69.846 -82.73 78.517 -78.99 Q87.188 -75.25 93.602 -68.839 Q100.017 -62.427 103.758 -53.76 Q107.5 -45.093 107.5 -35.238 Q107.5 -25.384 103.76 -16.713 Q100.02 -8.042 93.609 -1.628 Q87.197 4.787 78.53 8.528 Q69.863 12.27 60.008 12.27 Z M60 4.77 Q76.75 4.77 88.375 -6.855 Q100 -18.48 100 -35.23 Q100 -51.98 88.375 -63.605 Q76.75 -75.23 60 -75.23 Q43.25 -75.23 31.625 -63.605 Q20 -51.98 20 -35.23 Q20 -18.48 31.625 -6.855 Q43.25 4.77 60 4.77 Z"/></g><g id="Thin-M" transform="matrix(1 0 0 1 802.565 1126)"><path d="M50.362 -6.768 Q55.962 -6.768 59.904 -10.695 Q63.846 -14.621 63.846 -20.23 V-55.999 H78.077 V-63.691 H59.423 V-30.153 Q57.481 -31.73 55.167 -32.711 Q52.853 -33.691 50.385 -33.691 Q44.776 -33.691 40.849 -29.772 Q36.923 -25.852 36.923 -20.253 Q36.923 -14.653 40.843 -10.711 Q44.762 -6.768 50.362 -6.768 Z M60.017 9.77 Q50.683 9.77 42.465 6.228 Q34.248 2.685 28.17 -3.388 Q22.091 -9.46 18.546 -17.67 Q15 -25.879 15 -35.213 Q15 -44.547 18.542 -52.764 Q22.085 -60.982 28.158 -67.06 Q34.23 -73.138 42.44 -76.684 Q50.649 -80.23 59.983 -80.23 Q69.317 -80.23 77.534 -76.688 Q85.752 -73.145 91.83 -67.072 Q97.909 -61 101.454 -52.79 Q105 -44.581 105 -35.247 Q105 -25.913 101.458 -17.695 Q97.915 -9.478 91.842 -3.4 Q85.77 2.679 77.56 6.224 Q69.351 9.77 60.017 9.77 Z M60 4.77 Q76.75 4.77 88.375 -6.855 Q100 -18.48 100 -35.23 Q100 -51.98 88.375 -63.605 Q76.75 -75.23 60 -75.23 Q43.25 -75.23 31.625 -63.605 Q20 -51.98 20 -35.23 Q20 -18.48 31.625 -6.855 Q43.25 4.77 60 4.77 Z"/></g><g id="Ultralight-M" transform="matrix(1 0 0 1 506.415 1126)"><path d="M50.471 -7.23 Q55.875 -7.23 59.688 -11.022 Q63.5 -14.813 63.5 -20.23 V-56.23 H77.5 V-63.23 H60 V-29.23 Q58 -30.98 55.554 -32.105 Q53.109 -33.23 50.5 -33.23 Q45.083 -33.23 41.292 -29.447 Q37.5 -25.664 37.5 -20.259 Q37.5 -14.855 41.283 -11.042 Q45.066 -7.23 50.471 -7.23 Z M60.022 8.27 Q51 8.27 43.055 4.846 Q35.11 1.422 29.233 -4.447 Q23.357 -10.317 19.928 -18.252 Q16.5 -26.186 16.5 -35.208 Q16.5 -44.23 19.924 -52.175 Q23.348 -60.12 29.217 -65.996 Q35.087 -71.873 43.022 -75.302 Q50.956 -78.73 59.978 -78.73 Q69 -78.73 76.945 -75.306 Q84.89 -71.882 90.766 -66.013 Q96.644 -60.143 100.072 -52.208 Q103.5 -44.273 103.5 -35.252 Q103.5 -26.23 100.076 -18.285 Q96.652 -10.34 90.783 -4.463 Q84.913 1.414 76.978 4.842 Q69.043 8.27 60.022 8.27 Z M60 4.77 Q76.75 4.77 88.375 -6.855 Q100 -18.48 100 -35.23 Q100 -51.98 88.375 -63.605 Q76.75 -75.23 60 -75.23 Q43.25 -75.23 31.625 -63.605 Q20 -51.98 20 -35.23 Q20 -18.48 31.625 -6.855 Q43.25 4.77 60 4.77 Z"/></g><g id="Bold-S" transform="matrix(1 0 0 1 2294.23 696)"><path d="M40.239 -12.152 Q45.17 -12.152 48.622 -15.604 Q52.074 -19.055 52.074 -23.987 V-48.84 H61.542 V-55.941 H44.973 V-34.835 Q43.868 -35.329 42.685 -35.575 Q41.501 -35.822 40.239 -35.822 Q35.308 -35.822 31.856 -32.37 Q28.404 -28.918 28.404 -23.987 Q28.404 -19.055 31.856 -15.604 Q35.308 -12.152 40.239 -12.152 Z M47.367 5.995 Q38.76 5.995 31.265 2.782 Q23.771 -0.432 18.156 -6.046 Q12.542 -11.661 9.328 -19.151 Q6.115 -26.641 6.115 -35.275 Q6.115 -43.909 9.328 -51.354 Q12.542 -58.799 18.156 -64.414 Q23.771 -70.028 31.261 -73.242 Q38.751 -76.455 47.385 -76.455 Q56.019 -76.455 63.464 -73.242 Q70.909 -70.028 76.524 -64.414 Q82.138 -58.799 85.352 -51.332 Q88.565 -43.865 88.565 -35.257 Q88.565 -26.65 85.352 -19.155 Q82.138 -11.661 76.524 -6.046 Q70.909 -0.432 63.442 2.782 Q55.975 5.995 47.367 5.995 Z M47.34 -5.642 Q59.767 -5.642 68.347 -14.223 Q76.928 -22.803 76.928 -35.23 Q76.928 -47.657 68.347 -56.237 Q59.767 -64.817 47.34 -64.817 Q34.913 -64.817 26.333 -56.237 Q17.753 -47.657 17.753 -35.23 Q17.753 -22.803 26.333 -14.223 Q34.913 -5.642 47.34 -5.642 Z"/></g><g id="Semibold-S" transform="matrix(1 0 0 1 1998.1 696)"><path d="M40.239 -11.894 Q45.17 -11.894 48.622 -15.346 Q52.074 -18.798 52.074 -23.729 V-49.098 H61.542 V-56.199 H44.973 V-34.578 Q43.868 -35.071 42.685 -35.318 Q41.501 -35.564 40.239 -35.564 Q35.308 -35.564 31.856 -32.113 Q28.404 -28.661 28.404 -23.729 Q28.404 -18.798 31.856 -15.346 Q35.308 -11.894 40.239 -11.894 Z M47.367 4.537 Q39.103 4.537 31.865 1.435 Q24.628 -1.668 19.203 -7.093 Q13.778 -12.518 10.675 -19.751 Q7.573 -26.984 7.573 -35.275 Q7.573 -43.566 10.675 -50.754 Q13.778 -57.942 19.203 -63.367 Q24.628 -68.792 31.861 -71.895 Q39.094 -74.997 47.385 -74.997 Q55.676 -74.997 62.864 -71.895 Q70.052 -68.792 75.477 -63.367 Q80.902 -57.942 84.005 -50.732 Q87.107 -43.522 87.107 -35.257 Q87.107 -26.993 84.005 -19.755 Q80.902 -12.518 75.477 -7.093 Q70.052 -1.668 62.842 1.435 Q55.632 4.537 47.367 4.537 Z M47.34 -5.128 Q59.938 -5.128 68.69 -13.88 Q77.442 -22.632 77.442 -35.23 Q77.442 -47.828 68.69 -56.58 Q59.938 -65.332 47.34 -65.332 Q34.742 -65.332 25.99 -56.58 Q17.238 -47.828 17.238 -35.23 Q17.238 -22.632 25.99 -13.88 Q34.742 -5.128 47.34 -5.128 Z"/></g><g id="Medium-S" transform="matrix(1 0 0 1 1701.85 696)"><path d="M40.239 -11.702 Q45.17 -11.702 48.622 -15.153 Q52.074 -18.605 52.074 -23.537 V-49.29 H61.542 V-56.391 H44.973 V-34.385 Q43.868 -34.878 42.685 -35.125 Q41.501 -35.372 40.239 -35.372 Q35.308 -35.372 31.856 -31.92 Q28.404 -28.468 28.404 -23.537 Q28.404 -18.605 31.856 -15.153 Q35.308 -11.702 40.239 -11.702 Z M47.367 3.444 Q39.36 3.444 32.315 0.424 Q25.27 -2.595 19.988 -7.878 Q14.705 -13.16 11.686 -20.201 Q8.666 -27.242 8.666 -35.275 Q8.666 -43.309 11.686 -50.304 Q14.705 -57.3 19.988 -62.582 Q25.27 -67.865 32.311 -70.884 Q39.352 -73.904 47.385 -73.904 Q55.419 -73.904 62.414 -70.884 Q69.41 -67.865 74.692 -62.582 Q79.975 -57.3 82.994 -50.282 Q86.014 -43.264 86.014 -35.257 Q86.014 -27.25 82.994 -20.205 Q79.975 -13.16 74.692 -7.878 Q69.41 -2.595 62.392 0.424 Q55.374 3.444 47.367 3.444 Z M47.34 -4.742 Q60.067 -4.742 68.947 -13.623 Q77.828 -22.503 77.828 -35.23 Q77.828 -47.957 68.947 -56.837 Q60.067 -65.718 47.34 -65.718 Q34.613 -65.718 25.733 -56.837 Q16.852 -47.957 16.852 -35.23 Q16.852 -22.503 25.733 -13.623 Q34.613 -4.742 47.34 -4.742 Z"/></g><g id="Regular-S" transform="matrix(1 0 0 1 1405.73 696)"><path d="M40.239 -11.56 Q45.17 -11.56 48.622 -15.012 Q52.074 -18.464 52.074 -23.395 V-49.432 H61.542 V-56.533 H44.973 V-34.244 Q43.868 -34.737 42.685 -34.983 Q41.501 -35.23 40.239 -35.23 Q35.308 -35.23 31.856 -31.778 Q28.404 -28.326 28.404 -23.395 Q28.404 -18.464 31.856 -15.012 Q35.308 -11.56 40.239 -11.56 Z M47.367 2.642 Q39.549 2.642 32.645 -0.317 Q25.741 -3.275 20.563 -8.453 Q15.386 -13.631 12.427 -20.531 Q9.468 -27.43 9.468 -35.275 Q9.468 -43.12 12.427 -49.974 Q15.386 -56.829 20.563 -62.007 Q25.741 -67.184 32.641 -70.143 Q39.54 -73.102 47.385 -73.102 Q55.23 -73.102 62.084 -70.143 Q68.939 -67.184 74.117 -62.007 Q79.294 -56.829 82.253 -49.952 Q85.212 -43.076 85.212 -35.257 Q85.212 -27.439 82.253 -20.535 Q79.294 -13.631 74.117 -8.453 Q68.939 -3.275 62.062 -0.317 Q55.186 2.642 47.367 2.642 Z M47.34 -4.459 Q60.161 -4.459 69.136 -13.434 Q78.111 -22.409 78.111 -35.23 Q78.111 -48.051 69.136 -57.026 Q60.161 -66.001 47.34 -66.001 Q34.519 -66.001 25.544 -57.026 Q16.569 -48.051 16.569 -35.23 Q16.569 -22.409 25.544 -13.434 Q34.519 -4.459 47.34 -4.459 Z"/></g><g id="Light-S" transform="matrix(1 0 0 1 1109.75 696)"><path d="M40.382 -12.167 Q45.056 -12.167 48.338 -15.442 Q51.619 -18.717 51.619 -23.395 V-49.735 H60.783 V-55.926 H45.732 V-33.03 Q44.551 -33.751 43.195 -34.187 Q41.838 -34.623 40.391 -34.623 Q35.712 -34.623 32.438 -31.351 Q29.163 -28.079 29.163 -23.404 Q29.163 -18.729 32.435 -15.448 Q35.707 -12.167 40.382 -12.167 Z M47.374 0.669 Q39.966 0.669 33.42 -2.134 Q26.875 -4.936 21.962 -9.847 Q17.049 -14.758 14.245 -21.296 Q11.441 -27.835 11.441 -35.269 Q11.441 -42.703 14.244 -49.199 Q17.046 -55.695 21.957 -60.608 Q26.868 -65.521 33.406 -68.325 Q39.945 -71.129 47.379 -71.129 Q54.813 -71.129 61.309 -68.326 Q67.805 -65.524 72.718 -60.613 Q77.631 -55.702 80.435 -49.187 Q83.239 -42.672 83.239 -35.264 Q83.239 -27.856 80.436 -21.31 Q77.634 -14.765 72.723 -9.852 Q67.812 -4.939 61.297 -2.135 Q54.782 0.669 47.374 0.669 Z M47.34 -4.459 Q60.161 -4.459 69.136 -13.434 Q78.111 -22.409 78.111 -35.23 Q78.111 -48.051 69.136 -57.026 Q60.161 -66.001 47.34 -66.001 Q34.519 -66.001 25.544 -57.026 Q16.569 -48.051 16.569 -35.23 Q16.569 -22.409 25.544 -13.434 Q34.519 -4.459 47.34 -4.459 Z"/></g><g id="Thin-S" transform="matrix(1 0 0 1 814.015 696)"><path d="M40.525 -12.774 Q44.943 -12.774 48.053 -15.872 Q51.164 -18.969 51.164 -23.395 V-50.039 H60.025 V-55.319 H46.49 V-31.816 Q45.234 -32.764 43.704 -33.39 Q42.174 -34.016 40.542 -34.016 Q36.117 -34.016 33.019 -30.924 Q29.921 -27.831 29.921 -23.413 Q29.921 -18.995 33.014 -15.884 Q36.107 -12.774 40.525 -12.774 Z M47.38 -1.303 Q40.383 -1.303 34.196 -3.95 Q28.008 -6.597 23.36 -11.241 Q18.712 -15.884 16.063 -22.061 Q13.413 -28.239 13.413 -35.262 Q13.413 -42.286 16.06 -48.424 Q18.707 -54.562 23.351 -59.21 Q27.994 -63.858 34.171 -66.507 Q40.349 -69.157 47.372 -69.157 Q54.396 -69.157 60.534 -66.51 Q66.672 -63.863 71.32 -59.219 Q75.968 -54.576 78.617 -48.422 Q81.267 -42.268 81.267 -35.27 Q81.267 -28.273 78.62 -22.086 Q75.973 -15.898 71.329 -11.25 Q66.686 -6.602 60.532 -3.953 Q54.378 -1.303 47.38 -1.303 Z M47.34 -4.459 Q60.161 -4.459 69.136 -13.434 Q78.111 -22.409 78.111 -35.23 Q78.111 -48.051 69.136 -57.026 Q60.161 -66.001 47.34 -66.001 Q34.519 -66.001 25.544 -57.026 Q16.569 -48.051 16.569 -35.23 Q16.569 -22.409 25.544 -13.434 Q34.519 -4.459 47.34 -4.459 Z"/></g><g id="Ultralight-S" transform="matrix(1 0 0 1 517.792 696)"><path d="M40.61 -13.138 Q44.874 -13.138 47.882 -16.13 Q50.891 -19.121 50.891 -23.395 V-50.221 H59.57 V-54.955 H46.946 V-31.088 Q45.644 -32.173 44.01 -32.912 Q42.376 -33.652 40.634 -33.652 Q36.36 -33.652 33.368 -30.667 Q30.377 -27.682 30.377 -23.418 Q30.377 -19.154 33.361 -16.146 Q36.346 -13.138 40.61 -13.138 Z M47.384 -2.486 Q40.634 -2.486 34.661 -5.04 Q28.688 -7.594 24.199 -12.077 Q19.71 -16.56 17.153 -22.52 Q14.597 -28.481 14.597 -35.258 Q14.597 -42.035 17.15 -47.958 Q19.704 -53.882 24.187 -58.371 Q28.67 -62.86 34.63 -65.417 Q40.591 -67.973 47.368 -67.973 Q54.145 -67.973 60.068 -65.42 Q65.992 -62.866 70.481 -58.383 Q74.97 -53.9 77.527 -47.963 Q80.084 -42.025 80.084 -35.274 Q80.084 -28.523 77.53 -22.551 Q74.976 -16.578 70.493 -12.089 Q66.01 -7.6 60.073 -5.043 Q54.135 -2.486 47.384 -2.486 Z M47.34 -4.459 Q60.161 -4.459 69.136 -13.434 Q78.111 -22.409 78.111 -35.23 Q78.111 -48.051 69.136 -57.026 Q60.161 -66.001 47.34 -66.001 Q34.519 -66.001 25.544 -57.026 Q16.569 -48.051 16.569 -35.23 Q16.569 -22.409 25.544 -13.434 Q34.519 -4.459 47.34 -4.459 Z"/></g></g></svg>