<svg xmlns="http://www.w3.org/2000/svg" version="1.1" width="3300" height="2000"><g id="Notes"><style>
    text {
      font-family: monospace;
      text-anchor: middle;
    }
    text.emphasis {
      font-weight:bold;
    }
    text.lanchor {
      text-anchor: start;
    }
  </style><rect height="2200" id="artboard" fill="white" width="3300" x="0" y="0"/><line id="" style="fill:none;stroke:black;stroke-width:0.5;" x1="263" x2="3036" y1="292" y2="292"/><text class="lanchor emphasis" transform="matrix(1 0 0 1 263 322)">Weight/Scale Variations</text><text transform="matrix(1 0 0 1 559.711 322)">Ultralight</text><text transform="matrix(1 0 0 1 856.422 322)">Thin</text><text transform="matrix(1 0 0 1 1153.13 322)">Light</text><text transform="matrix(1 0 0 1 1449.84 322)">Regular</text><text transform="matrix(1 0 0 1 1746.56 322)">Medium</text><text transform="matrix(1 0 0 1 2043.27 322)">Semibold</text><text transform="matrix(1 0 0 1 2339.98 322)">Bold</text><text transform="matrix(1 0 0 1 2636.69 322)">Heavy</text><text transform="matrix(1 0 0 1 2933.4 322)">Black</text><text id="template-version" style="text-anchor: end;" transform="matrix(1 0 0 1 3036 1933)">Template v.1.0</text><text class="lanchor" transform="matrix(1 0 0 1 263 726)">Small</text><text class="lanchor" transform="matrix(1 0 0 1 263 1156)">Medium</text><text class="lanchor" transform="matrix(1 0 0 1 263 1586)">Large</text></g><g id="Guides"><g id="H-reference" style="fill:#27AAE1;stroke:none;" transform="matrix(1 0 0 1 339 696)"><path d="M 54.9316 0 L 57.666 0 L 30.5664 -70.459 L 28.0762 -70.459 L 0.976562 0 L 3.66211 0 L 12.9395 -24.4629 L 45.7031 -24.4629 Z M 29.1992 -67.0898 L 29.4434 -67.0898 L 44.8242 -26.709 L 13.8184 -26.709 Z"/></g><line id="Baseline-S" style="fill:none;stroke:#27AAE1;opacity:1;stroke-width:0.577;" x1="263" x2="3036" y1="696" y2="696"/><line id="Capline-S" style="fill:none;stroke:#27AAE1;opacity:1;stroke-width:0.577;" x1="263" x2="3036" y1="625.541" y2="625.541"/><g id="H-reference" style="fill:#27AAE1;stroke:none;" transform="matrix(1 0 0 1 339 1126)"><path d="M 54.9316 0 L 57.666 0 L 30.5664 -70.459 L 28.0762 -70.459 L 0.976562 0 L 3.66211 0 L 12.9395 -24.4629 L 45.7031 -24.4629 Z M 29.1992 -67.0898 L 29.4434 -67.0898 L 44.8242 -26.709 L 13.8184 -26.709 Z"/></g><line id="Baseline-M" style="fill:none;stroke:#27AAE1;opacity:1;stroke-width:0.577;" x1="263" x2="3036" y1="1126" y2="1126"/><line id="Capline-M" style="fill:none;stroke:#27AAE1;opacity:1;stroke-width:0.577;" x1="263" x2="3036" y1="1055.54" y2="1055.54"/><g id="H-reference" style="fill:#27AAE1;stroke:none;" transform="matrix(1 0 0 1 339 1556)"><path d="M 54.9316 0 L 57.666 0 L 30.5664 -70.459 L 28.0762 -70.459 L 0.976562 0 L 3.66211 0 L 12.9395 -24.4629 L 45.7031 -24.4629 Z M 29.1992 -67.0898 L 29.4434 -67.0898 L 44.8242 -26.709 L 13.8184 -26.709 Z"/></g><line id="Baseline-L" style="fill:none;stroke:#27AAE1;opacity:1;stroke-width:0.577;" x1="263" x2="3036" y1="1556" y2="1556"/><line id="Capline-L" style="fill:none;stroke:#27AAE1;opacity:1;stroke-width:0.577;" x1="263" x2="3036" y1="1485.54" y2="1485.54"/><rect height="119.336" id="left-margin" style="fill:darkred;stroke:none;opacity:0.4;" width="12.4512" x="1394.06" y="1030.79"/><rect height="119.336" id="right-margin" style="fill:darkgreen;stroke:none;opacity:0.4;" width="12.4512" x="1502.5112" y="1030.79"/><rect x="1406.5112" y="1045" width="96" height="96" fill="none" stroke="blue" stroke-dasharray="5"/><rect x="1394.06" y="1030.79" width="120.9024" height="119.336" fill="none" stroke="blue"/></g><g id="Symbols"><g id="Bold-L" transform="matrix(1 0 0 1 2266 1556)"><path d="M57.691 -19.266 Q53.858 -19.266 51.278 -21.883 Q48.697 -24.499 48.697 -28.333 Q48.697 -32.166 51.314 -34.746 Q53.93 -37.326 57.764 -37.326 Q61.598 -37.326 64.177 -34.71 Q66.758 -32.094 66.758 -28.26 Q66.758 -24.426 64.141 -21.846 Q61.525 -19.266 57.691 -19.266 Z M97.197 -19.266 Q93.364 -19.266 90.784 -21.883 Q88.204 -24.499 88.204 -28.333 Q88.204 -32.166 90.82 -34.746 Q93.436 -37.326 97.27 -37.326 Q101.104 -37.326 103.764 -34.71 Q106.425 -32.094 106.425 -28.26 Q106.425 -24.426 103.728 -21.846 Q101.031 -19.266 97.197 -19.266 Z M77.4 18.144 Q99.713 18.144 115.324 2.662 Q130.935 -12.82 130.935 -35.128 Q130.935 -39.293 130.29 -43.13 Q129.645 -46.968 128.678 -50.226 Q125.453 -49.259 121.9 -49.017 Q118.348 -48.775 114.192 -48.775 Q98.828 -48.775 85.292 -54.983 Q71.756 -61.191 62.081 -72.962 Q56.76 -60.385 46.843 -50.952 Q36.926 -41.519 24.188 -36.197 Q24.188 -36.036 24.188 -35.552 Q24.188 -35.069 24.188 -35.069 Q24.188 -12.786 39.697 2.679 Q55.207 18.144 77.4 18.144 Z M77.539 33.301 Q63.345 33.301 50.861 27.899 Q38.377 22.498 29.016 13.191 Q19.656 3.885 14.262 -8.587 Q8.869 -21.059 8.869 -35.24 Q8.869 -49.42 14.262 -61.881 Q19.656 -74.341 29.016 -83.65 Q38.377 -92.957 50.88 -98.44 Q63.383 -103.922 77.598 -103.922 Q91.813 -103.922 104.222 -98.44 Q116.631 -92.957 125.96 -83.686 Q135.289 -74.414 140.691 -61.926 Q146.093 -49.438 146.093 -35.239 Q146.093 -21.04 140.706 -8.561 Q135.32 3.918 125.971 13.239 Q116.622 22.561 104.148 27.931 Q91.674 33.301 77.539 33.301 Z M62.565 -87.959 Q76.755 -71.35 88.768 -65.222 Q100.781 -59.095 115.133 -59.095 Q119.002 -59.095 121.26 -59.256 Q123.517 -59.417 126.259 -60.224 Q119.002 -73.285 106.506 -81.67 Q94.009 -90.055 77.4 -90.055 Q73.046 -90.055 69.176 -89.41 Q65.306 -88.765 62.565 -87.959 Z M24.026 -47.807 Q31.766 -50.71 41.683 -60.949 Q51.6 -71.189 55.793 -85.701 Q41.764 -79.412 34.588 -69.657 Q27.413 -59.901 24.026 -47.807 Z"/></g><g id="Semibold-L" transform="matrix(1 0 0 1 1970.27 1556)"><path d="M57.411 -19.407 Q53.647 -19.407 51.102 -21.988 Q48.557 -24.569 48.557 -28.333 Q48.557 -32.096 51.139 -34.641 Q53.72 -37.186 57.483 -37.186 Q61.247 -37.186 63.792 -34.605 Q66.337 -32.024 66.337 -28.26 Q66.337 -24.496 63.756 -21.951 Q61.174 -19.407 57.411 -19.407 Z M97.478 -19.407 Q93.714 -19.407 91.169 -21.988 Q88.624 -24.569 88.624 -28.333 Q88.624 -32.096 91.206 -34.641 Q93.787 -37.186 97.55 -37.186 Q101.314 -37.186 103.905 -34.605 Q106.495 -32.024 106.495 -28.26 Q106.495 -24.496 103.868 -21.951 Q101.241 -19.407 97.478 -19.407 Z M77.4 18.775 Q99.993 18.775 115.745 3.087 Q131.496 -12.601 131.496 -35.205 Q131.496 -39.349 130.851 -43.271 Q130.206 -47.193 129.238 -50.507 Q126.013 -49.609 122.375 -49.332 Q118.736 -49.055 114.601 -49.055 Q99.108 -49.055 85.397 -55.369 Q71.686 -61.682 61.941 -73.523 Q56.55 -60.736 46.493 -51.162 Q36.436 -41.589 23.486 -36.268 Q23.486 -36.106 23.486 -35.658 Q23.486 -35.209 23.486 -35.139 Q23.486 -12.563 39.18 3.106 Q54.874 18.775 77.4 18.775 Z M77.479 31.549 Q63.637 31.549 51.463 26.287 Q39.289 21.025 30.212 11.979 Q21.135 2.933 15.878 -9.234 Q10.621 -21.401 10.621 -35.235 Q10.621 -49.069 15.878 -61.23 Q21.135 -73.391 30.212 -82.438 Q39.289 -91.485 51.474 -96.793 Q63.658 -102.1 77.512 -102.1 Q91.366 -102.1 103.497 -96.793 Q115.629 -91.485 124.688 -82.459 Q133.746 -73.432 139.008 -61.256 Q144.27 -49.079 144.27 -35.235 Q144.27 -21.391 139.017 -9.219 Q133.764 2.952 124.694 12.006 Q115.624 21.061 103.456 26.305 Q91.287 31.549 77.479 31.549 Z M62.565 -87.959 Q76.755 -71.35 88.768 -65.222 Q100.781 -59.095 115.133 -59.095 Q119.002 -59.095 121.26 -59.256 Q123.517 -59.417 126.259 -60.224 Q119.002 -73.285 106.506 -81.67 Q94.009 -90.055 77.4 -90.055 Q73.046 -90.055 69.176 -89.41 Q65.306 -88.765 62.565 -87.959 Z M24.026 -47.807 Q31.766 -50.71 41.683 -60.949 Q51.6 -71.189 55.793 -85.701 Q41.764 -79.412 34.588 -69.657 Q27.413 -59.901 24.026 -47.807 Z"/></g><g id="Medium-L" transform="matrix(1 0 0 1 1674.31 1556)"><path d="M57.2 -19.512 Q53.489 -19.512 50.971 -22.067 Q48.452 -24.622 48.452 -28.333 Q48.452 -32.044 51.007 -34.562 Q53.562 -37.081 57.273 -37.081 Q60.984 -37.081 63.503 -34.526 Q66.021 -31.971 66.021 -28.26 Q66.021 -24.549 63.466 -22.03 Q60.911 -19.512 57.2 -19.512 Z M97.688 -19.512 Q93.977 -19.512 91.459 -22.067 Q88.94 -24.622 88.94 -28.333 Q88.94 -32.044 91.495 -34.562 Q94.05 -37.081 97.761 -37.081 Q101.472 -37.081 104.01 -34.526 Q106.548 -31.971 106.548 -28.26 Q106.548 -24.549 103.973 -22.03 Q101.399 -19.512 97.688 -19.512 Z M77.4 19.248 Q100.204 19.248 116.06 3.406 Q131.917 -12.436 131.917 -35.263 Q131.917 -39.392 131.272 -43.376 Q130.627 -47.361 129.659 -50.717 Q126.434 -49.872 122.731 -49.569 Q119.027 -49.266 114.908 -49.266 Q99.319 -49.266 85.476 -55.658 Q71.634 -62.05 61.836 -73.944 Q56.392 -60.998 46.23 -51.32 Q36.067 -41.641 22.961 -36.32 Q22.961 -36.159 22.961 -35.736 Q22.961 -35.314 22.961 -35.191 Q22.961 -12.395 38.793 3.426 Q54.625 19.248 77.4 19.248 Z M77.433 30.234 Q63.856 30.234 51.914 25.078 Q39.972 19.921 31.109 11.07 Q22.245 2.22 17.09 -9.719 Q11.936 -21.658 11.936 -35.232 Q11.936 -48.807 17.09 -60.743 Q22.245 -72.679 31.109 -81.53 Q39.972 -90.381 51.919 -95.557 Q63.865 -100.733 77.447 -100.733 Q91.03 -100.733 102.954 -95.557 Q114.877 -90.381 123.733 -81.539 Q132.59 -72.696 137.746 -60.753 Q142.903 -48.811 142.903 -35.232 Q142.903 -21.653 137.75 -9.713 Q132.597 2.227 123.736 11.082 Q114.875 19.936 102.936 25.085 Q90.997 30.234 77.433 30.234 Z M62.565 -87.959 Q76.755 -71.35 88.768 -65.222 Q100.781 -59.095 115.133 -59.095 Q119.002 -59.095 121.26 -59.256 Q123.517 -59.417 126.259 -60.224 Q119.002 -73.285 106.506 -81.67 Q94.009 -90.055 77.4 -90.055 Q73.046 -90.055 69.176 -89.41 Q65.306 -88.765 62.565 -87.959 Z M24.026 -47.807 Q31.766 -50.71 41.683 -60.949 Q51.6 -71.189 55.793 -85.701 Q41.764 -79.412 34.588 -69.657 Q27.413 -59.901 24.026 -47.807 Z"/></g><g id="Regular-L" transform="matrix(1 0 0 1 1378.56 1556)"><path d="M57.046 -19.589 Q53.374 -19.589 50.874 -22.124 Q48.375 -24.66 48.375 -28.333 Q48.375 -32.005 50.911 -34.504 Q53.446 -37.004 57.119 -37.004 Q60.791 -37.004 63.291 -34.468 Q65.79 -31.932 65.79 -28.26 Q65.79 -24.587 63.254 -22.088 Q60.719 -19.589 57.046 -19.589 Z M97.842 -19.589 Q94.17 -19.589 91.671 -22.124 Q89.171 -24.66 89.171 -28.333 Q89.171 -32.005 91.707 -34.504 Q94.243 -37.004 97.915 -37.004 Q101.588 -37.004 104.087 -34.468 Q106.586 -31.932 106.586 -28.26 Q106.586 -24.587 104.051 -22.088 Q101.515 -19.589 97.842 -19.589 Z M77.4 19.595 Q100.358 19.595 116.292 3.64 Q132.225 -12.316 132.225 -35.305 Q132.225 -39.422 131.58 -43.454 Q130.935 -47.485 129.968 -50.871 Q126.743 -50.065 122.992 -49.742 Q119.241 -49.42 115.133 -49.42 Q99.473 -49.42 85.534 -55.87 Q71.595 -62.32 61.759 -74.252 Q56.276 -61.191 46.037 -51.436 Q35.797 -41.68 22.575 -36.359 Q22.575 -36.197 22.575 -35.794 Q22.575 -35.391 22.575 -35.23 Q22.575 -12.272 38.508 3.662 Q54.442 19.595 77.4 19.595 Z M77.4 29.27 Q64.016 29.27 52.245 24.191 Q40.474 19.111 31.766 10.404 Q23.059 1.696 17.979 -10.075 Q12.9 -21.846 12.9 -35.23 Q12.9 -48.614 17.979 -60.385 Q23.059 -72.156 31.766 -80.864 Q40.474 -89.571 52.245 -94.651 Q64.016 -99.73 77.4 -99.73 Q90.784 -99.73 102.555 -94.651 Q114.326 -89.571 123.034 -80.864 Q131.741 -72.156 136.821 -60.385 Q141.9 -48.614 141.9 -35.23 Q141.9 -21.846 136.821 -10.075 Q131.741 1.696 123.034 10.404 Q114.326 19.111 102.555 24.191 Q90.784 29.27 77.4 29.27 Z M62.565 -87.959 Q76.755 -71.35 88.768 -65.222 Q100.781 -59.095 115.133 -59.095 Q119.002 -59.095 121.26 -59.256 Q123.517 -59.417 126.259 -60.224 Q119.002 -73.285 106.506 -81.67 Q94.009 -90.055 77.4 -90.055 Q73.046 -90.055 69.176 -89.41 Q65.306 -88.765 62.565 -87.959 Z M24.026 -47.807 Q31.766 -50.71 41.683 -60.949 Q51.6 -71.189 55.793 -85.701 Q41.764 -79.412 34.588 -69.657 Q27.413 -59.901 24.026 -47.807 Z"/></g><g id="Light-L" transform="matrix(1 0 0 1 1082.77 1556)"><path d="M57.294 -19.899 Q53.746 -19.899 51.278 -22.404 Q48.809 -24.908 48.809 -28.488 Q48.809 -32.067 51.314 -34.504 Q53.819 -36.942 57.398 -36.942 Q60.977 -36.942 63.415 -34.46 Q65.852 -31.978 65.852 -28.384 Q65.852 -24.836 63.37 -22.367 Q60.888 -19.899 57.294 -19.899 Z M97.532 -19.899 Q93.984 -19.899 91.516 -22.404 Q89.047 -24.908 89.047 -28.488 Q89.047 -32.067 91.552 -34.504 Q94.057 -36.942 97.636 -36.942 Q101.215 -36.942 103.653 -34.46 Q106.09 -31.978 106.09 -28.384 Q106.09 -24.836 103.608 -22.367 Q101.126 -19.899 97.532 -19.899 Z M77.394 18.727 Q99.986 18.727 115.671 3.023 Q131.357 -12.681 131.357 -35.308 Q131.357 -39.36 130.743 -43.268 Q130.129 -47.175 129.127 -50.561 Q125.812 -49.755 122.185 -49.401 Q118.558 -49.048 114.525 -49.048 Q99.163 -49.048 85.441 -55.467 Q71.719 -61.886 62.069 -73.632 Q56.71 -60.757 46.626 -51.094 Q36.542 -41.432 23.443 -36.285 Q23.443 -36.135 23.443 -35.748 Q23.443 -35.36 23.443 -35.23 Q23.443 -12.636 39.123 3.046 Q54.802 18.727 77.394 18.727 Z M77.411 26.045 Q64.698 26.045 53.513 21.22 Q42.327 16.396 34.053 8.125 Q25.779 -0.146 20.952 -11.326 Q16.125 -22.507 16.125 -35.219 Q16.125 -47.932 20.95 -59.117 Q25.774 -70.303 34.045 -78.577 Q42.316 -86.851 53.496 -91.678 Q64.677 -96.505 77.389 -96.505 Q90.102 -96.505 101.287 -91.68 Q112.473 -86.856 120.747 -78.585 Q129.021 -70.314 133.848 -59.134 Q138.675 -47.953 138.675 -35.241 Q138.675 -22.528 133.85 -11.343 Q129.026 -0.157 120.755 8.117 Q112.484 16.391 101.304 21.218 Q90.123 26.045 77.411 26.045 Z M61.201 -86.842 Q73.964 -69.365 87.249 -62.866 Q100.533 -56.366 114.512 -56.366 Q118.382 -56.366 120.981 -56.589 Q123.58 -56.813 126.507 -57.681 Q119.685 -71.797 106.785 -80.492 Q93.885 -89.187 77.4 -89.187 Q72.597 -89.187 68.517 -88.542 Q64.438 -87.897 61.201 -86.842 Z M24.336 -44.83 Q33.007 -48.105 43.978 -58.934 Q54.949 -69.762 58.149 -85.825 Q43.314 -79.847 35.239 -69.161 Q27.164 -58.475 24.336 -44.83 Z"/></g><g id="Thin-L" transform="matrix(1 0 0 1 787.282 1556)"><path d="M57.542 -20.209 Q54.118 -20.209 51.681 -22.683 Q49.243 -25.156 49.243 -28.643 Q49.243 -32.129 51.717 -34.504 Q54.191 -36.88 57.677 -36.88 Q61.163 -36.88 63.539 -34.452 Q65.914 -32.024 65.914 -28.508 Q65.914 -25.084 63.486 -22.646 Q61.058 -20.209 57.542 -20.209 Z M97.222 -20.209 Q93.798 -20.209 91.361 -22.683 Q88.923 -25.156 88.923 -28.643 Q88.923 -32.129 91.397 -34.504 Q93.871 -36.88 97.357 -36.88 Q100.843 -36.88 103.219 -34.452 Q105.594 -32.024 105.594 -28.508 Q105.594 -25.084 103.166 -22.646 Q100.738 -20.209 97.222 -20.209 Z M77.388 17.858 Q99.614 17.858 115.051 2.406 Q130.488 -13.046 130.488 -35.311 Q130.488 -39.298 129.905 -43.082 Q129.322 -46.865 128.287 -50.251 Q124.882 -49.445 121.379 -49.06 Q117.876 -48.676 113.918 -48.676 Q98.853 -48.676 85.348 -55.064 Q71.843 -61.452 62.379 -73.012 Q57.145 -60.323 47.215 -50.753 Q37.286 -41.184 24.312 -36.211 Q24.312 -36.073 24.312 -35.701 Q24.312 -35.329 24.312 -35.23 Q24.312 -12.999 39.737 2.43 Q55.162 17.858 77.388 17.858 Z M77.422 22.82 Q65.381 22.82 54.78 18.25 Q44.18 13.681 36.339 5.847 Q28.498 -1.987 23.924 -12.577 Q19.35 -23.168 19.35 -35.208 Q19.35 -47.249 23.92 -57.85 Q28.489 -68.45 36.323 -76.291 Q44.157 -84.132 54.747 -88.706 Q65.338 -93.28 77.378 -93.28 Q89.419 -93.28 100.02 -88.71 Q110.62 -84.141 118.461 -76.307 Q126.302 -68.473 130.876 -57.883 Q135.45 -47.292 135.45 -35.252 Q135.45 -23.211 130.88 -12.61 Q126.311 -2.01 118.477 5.831 Q110.643 13.672 100.053 18.246 Q89.462 22.82 77.422 22.82 Z M59.836 -85.726 Q71.173 -67.381 85.729 -60.509 Q100.285 -53.637 113.892 -53.637 Q117.762 -53.637 120.702 -53.923 Q123.642 -54.208 126.755 -55.138 Q120.367 -70.308 107.064 -79.313 Q93.761 -88.318 77.4 -88.318 Q72.147 -88.318 67.858 -87.673 Q63.57 -87.028 59.836 -85.726 Z M24.646 -41.854 Q34.247 -45.5 46.272 -56.918 Q58.298 -68.336 60.506 -85.949 Q44.865 -80.281 35.891 -68.665 Q26.916 -57.048 24.646 -41.854 Z"/></g><g id="Ultralight-L" transform="matrix(1 0 0 1 491.205 1556)"><path d="M57.691 -20.395 Q54.341 -20.395 51.922 -22.85 Q49.504 -25.305 49.504 -28.736 Q49.504 -32.166 51.959 -34.504 Q54.414 -36.842 57.844 -36.842 Q61.275 -36.842 63.613 -34.447 Q65.951 -32.052 65.951 -28.582 Q65.951 -25.232 63.556 -22.814 Q61.16 -20.395 57.691 -20.395 Z M97.036 -20.395 Q93.686 -20.395 91.267 -22.85 Q88.849 -25.305 88.849 -28.736 Q88.849 -32.166 91.304 -34.504 Q93.759 -36.842 97.189 -36.842 Q100.62 -36.842 102.958 -34.447 Q105.296 -32.052 105.296 -28.582 Q105.296 -25.232 102.901 -22.814 Q100.505 -20.395 97.036 -20.395 Z M77.384 17.338 Q99.39 17.338 114.679 2.036 Q129.968 -13.265 129.968 -35.313 Q129.968 -39.261 129.403 -42.97 Q128.839 -46.679 127.782 -50.065 Q124.324 -49.259 120.895 -48.856 Q117.467 -48.452 113.554 -48.452 Q98.666 -48.452 85.292 -54.822 Q71.918 -61.191 62.565 -72.64 Q57.405 -60.062 47.569 -50.549 Q37.733 -41.035 24.832 -36.166 Q24.832 -36.036 24.832 -35.673 Q24.832 -35.311 24.832 -35.23 Q24.832 -13.217 40.105 2.06 Q55.378 17.338 77.384 17.338 Z M77.428 20.885 Q65.79 20.885 55.541 16.468 Q45.292 12.051 37.711 4.48 Q30.13 -3.092 25.707 -13.328 Q21.285 -23.564 21.285 -35.202 Q21.285 -46.84 25.702 -57.089 Q30.119 -67.338 37.69 -74.919 Q45.262 -82.5 55.498 -86.923 Q65.734 -91.345 77.372 -91.345 Q89.01 -91.345 99.259 -86.928 Q109.508 -82.511 117.089 -74.94 Q124.67 -67.368 129.093 -57.132 Q133.515 -46.896 133.515 -35.258 Q133.515 -23.62 129.098 -13.371 Q124.681 -3.122 117.11 4.459 Q109.538 12.04 99.302 16.463 Q89.066 20.885 77.428 20.885 Z M59.017 -85.056 Q69.499 -66.19 84.817 -59.095 Q100.136 -52 113.52 -52 Q117.39 -52 120.534 -52.322 Q123.679 -52.645 126.904 -53.612 Q120.776 -69.415 107.231 -78.606 Q93.686 -87.797 77.4 -87.797 Q71.877 -87.797 67.463 -87.152 Q63.049 -86.507 59.017 -85.056 Z M24.832 -40.067 Q34.991 -43.937 47.649 -55.709 Q60.308 -67.48 61.92 -86.024 Q45.795 -80.541 36.281 -68.367 Q26.768 -56.192 24.832 -40.067 Z"/></g><g id="Bold-M" transform="matrix(1 0 0 1 2281.8 1126)"><path d="M45.625 -23.605 Q42.75 -23.605 40.875 -25.48 Q39 -27.355 39 -30.23 Q39 -33.105 40.875 -34.98 Q42.75 -36.855 45.625 -36.855 Q48.5 -36.855 50.375 -34.98 Q52.25 -33.105 52.25 -30.23 Q52.25 -27.355 50.375 -25.48 Q48.5 -23.605 45.625 -23.605 Z M74.375 -23.605 Q71.5 -23.605 69.625 -25.48 Q67.75 -27.355 67.75 -30.23 Q67.75 -33.105 69.625 -34.98 Q71.5 -36.855 74.375 -36.855 Q77.25 -36.855 79.125 -34.98 Q81 -33.105 81 -30.23 Q81 -27.355 79.125 -25.48 Q77.25 -23.605 74.375 -23.605 Z M60 3.27 Q76 3.27 87.312 -7.846 Q98.625 -18.963 98.625 -34.98 Q98.625 -37.98 98.25 -40.608 Q97.875 -43.236 96.875 -45.73 Q94.25 -45.105 91.812 -44.792 Q89.375 -44.48 86.5 -44.48 Q75.5 -44.48 65.812 -49.167 Q56.125 -53.855 49.125 -62.355 Q45.375 -53.105 38.188 -46.23 Q31 -39.355 21.625 -35.73 Q21.625 -35.48 21.625 -35.355 Q21.625 -35.23 21.625 -34.98 Q21.625 -18.963 32.812 -7.846 Q44 3.27 60 3.27 Z M60.125 19.02 Q48.889 19.02 39.007 14.77 Q29.125 10.52 21.75 3.145 Q14.375 -4.23 10.125 -14.115 Q5.875 -24.001 5.875 -35.24 Q5.875 -46.48 10.125 -56.355 Q14.375 -66.23 21.75 -73.605 Q29.125 -80.98 39.01 -85.23 Q48.896 -89.48 60.135 -89.48 Q71.375 -89.48 81.188 -85.23 Q91 -80.98 98.375 -73.605 Q105.75 -66.23 110 -56.345 Q114.25 -46.459 114.25 -35.22 Q114.25 -23.98 110 -14.105 Q105.75 -4.23 98.375 3.145 Q91 10.52 81.158 14.77 Q71.316 19.02 60.125 19.02 Z M53.25 -74.605 Q58.5 -65.855 67.5 -60.542 Q76.5 -55.23 87.5 -55.23 Q89.25 -55.23 90.875 -55.417 Q92.5 -55.605 94.25 -55.855 Q89 -64.605 80 -69.917 Q71 -75.23 60 -75.23 Q58.25 -75.23 56.625 -75.042 Q55 -74.855 53.25 -74.605 Z M22.125 -47.855 Q28.5 -51.48 33.25 -57.23 Q38 -62.98 40.375 -70.105 Q34 -66.48 29.25 -60.73 Q24.5 -54.98 22.125 -47.855 Z"/></g><g id="Semibold-M" transform="matrix(1 0 0 1 1985.97 1126)"><path d="M45.353 -23.768 Q42.587 -23.768 40.739 -25.616 Q38.891 -27.464 38.891 -30.23 Q38.891 -32.996 40.739 -34.844 Q42.587 -36.692 45.353 -36.692 Q48.12 -36.692 49.967 -34.844 Q51.815 -32.996 51.815 -30.23 Q51.815 -27.464 49.967 -25.616 Q48.12 -23.768 45.353 -23.768 Z M74.647 -23.768 Q71.88 -23.768 70.033 -25.616 Q68.185 -27.464 68.185 -30.23 Q68.185 -32.996 70.033 -34.844 Q71.88 -36.692 74.647 -36.692 Q77.413 -36.692 79.261 -34.844 Q81.109 -32.996 81.109 -30.23 Q81.109 -27.464 79.261 -25.616 Q77.413 -23.768 74.647 -23.768 Z M60 3.922 Q76.326 3.922 87.774 -7.415 Q99.223 -18.753 99.223 -35.089 Q99.223 -38.089 98.848 -40.797 Q98.473 -43.505 97.473 -46.056 Q94.848 -45.431 92.329 -45.119 Q89.81 -44.806 86.935 -44.806 Q75.772 -44.806 65.894 -49.575 Q56.016 -54.344 48.962 -62.953 Q45.103 -53.485 37.807 -46.474 Q30.511 -39.464 20.919 -35.839 Q20.919 -35.589 20.919 -35.464 Q20.919 -35.339 20.919 -35.089 Q20.919 -18.753 32.296 -7.415 Q43.674 3.922 60 3.922 Z M60.071 17.172 Q49.209 17.172 39.656 13.058 Q30.103 8.944 23 1.841 Q15.897 -5.262 11.783 -14.817 Q7.668 -24.372 7.668 -35.236 Q7.668 -46.1 11.783 -55.648 Q15.897 -65.197 23 -72.301 Q30.103 -79.404 39.658 -83.518 Q49.213 -87.632 60.077 -87.632 Q70.94 -87.632 80.454 -83.518 Q89.968 -79.404 97.071 -72.301 Q104.174 -65.197 108.288 -55.643 Q112.402 -46.088 112.402 -35.224 Q112.402 -24.36 108.288 -14.811 Q104.174 -5.262 97.071 1.841 Q89.968 8.944 80.437 13.058 Q70.907 17.172 60.071 17.172 Z M53.25 -74.605 Q58.5 -65.855 67.5 -60.542 Q76.5 -55.23 87.5 -55.23 Q89.25 -55.23 90.875 -55.417 Q92.5 -55.605 94.25 -55.855 Q89 -64.605 80 -69.917 Q71 -75.23 60 -75.23 Q58.25 -75.23 56.625 -75.042 Q55 -74.855 53.25 -74.605 Z M22.125 -47.855 Q28.5 -51.48 33.25 -57.23 Q38 -62.98 40.375 -70.105 Q34 -66.48 29.25 -60.73 Q24.5 -54.98 22.125 -47.855 Z"/></g><g id="Medium-M" transform="matrix(1 0 0 1 1689.91 1126)"><path d="M45.15 -23.89 Q42.465 -23.89 40.637 -25.718 Q38.81 -27.545 38.81 -30.23 Q38.81 -32.915 40.637 -34.742 Q42.465 -36.57 45.15 -36.57 Q47.834 -36.57 49.662 -34.742 Q51.489 -32.915 51.489 -30.23 Q51.489 -27.545 49.662 -25.718 Q47.834 -23.89 45.15 -23.89 Z M74.85 -23.89 Q72.166 -23.89 70.338 -25.718 Q68.511 -27.545 68.511 -30.23 Q68.511 -32.915 70.338 -34.742 Q72.166 -36.57 74.85 -36.57 Q77.535 -36.57 79.363 -34.742 Q81.19 -32.915 81.19 -30.23 Q81.19 -27.545 79.363 -25.718 Q77.535 -23.89 74.85 -23.89 Z M60 4.411 Q76.571 4.411 88.121 -7.092 Q99.671 -18.595 99.671 -35.17 Q99.671 -38.17 99.296 -40.939 Q98.921 -43.707 97.921 -46.301 Q95.296 -45.676 92.716 -45.363 Q90.136 -45.051 87.261 -45.051 Q75.975 -45.051 65.955 -49.881 Q55.935 -54.711 48.84 -63.401 Q44.9 -53.771 37.522 -46.658 Q30.144 -39.545 20.389 -35.92 Q20.389 -35.67 20.389 -35.545 Q20.389 -35.42 20.389 -35.17 Q20.389 -18.595 31.909 -7.092 Q43.429 4.411 60 4.411 Z M60.03 15.786 Q49.449 15.786 40.143 11.774 Q30.837 7.762 23.938 0.862 Q17.038 -6.037 13.026 -15.344 Q9.014 -24.651 9.014 -35.232 Q9.014 -45.814 13.026 -55.119 Q17.038 -64.423 23.938 -71.322 Q30.837 -78.222 40.144 -82.234 Q49.451 -86.246 60.032 -86.246 Q70.614 -86.246 79.903 -82.234 Q89.193 -78.222 96.092 -71.322 Q102.992 -64.423 107.004 -55.116 Q111.016 -45.809 111.016 -35.227 Q111.016 -24.646 107.004 -15.341 Q102.992 -6.037 96.092 0.862 Q89.193 7.762 79.896 11.774 Q70.6 15.786 60.03 15.786 Z M53.25 -74.605 Q58.5 -65.855 67.5 -60.542 Q76.5 -55.23 87.5 -55.23 Q89.25 -55.23 90.875 -55.417 Q92.5 -55.605 94.25 -55.855 Q89 -64.605 80 -69.917 Q71 -75.23 60 -75.23 Q58.25 -75.23 56.625 -75.042 Q55 -74.855 53.25 -74.605 Z M22.125 -47.855 Q28.5 -51.48 33.25 -57.23 Q38 -62.98 40.375 -70.105 Q34 -66.48 29.25 -60.73 Q24.5 -54.98 22.125 -47.855 Z"/></g><g id="Regular-M" transform="matrix(1 0 0 1 1394.06 1126)"><path d="M45 -23.98 Q42.375 -23.98 40.562 -25.792 Q38.75 -27.605 38.75 -30.23 Q38.75 -32.855 40.562 -34.667 Q42.375 -36.48 45 -36.48 Q47.625 -36.48 49.438 -34.667 Q51.25 -32.855 51.25 -30.23 Q51.25 -27.605 49.438 -25.792 Q47.625 -23.98 45 -23.98 Z M75 -23.98 Q72.375 -23.98 70.562 -25.792 Q68.75 -27.605 68.75 -30.23 Q68.75 -32.855 70.562 -34.667 Q72.375 -36.48 75 -36.48 Q77.625 -36.48 79.438 -34.667 Q81.25 -32.855 81.25 -30.23 Q81.25 -27.605 79.438 -25.792 Q77.625 -23.98 75 -23.98 Z M60 4.77 Q76.75 4.77 88.375 -6.855 Q100 -18.48 100 -35.23 Q100 -38.23 99.625 -41.042 Q99.25 -43.855 98.25 -46.48 Q95.625 -45.855 93 -45.542 Q90.375 -45.23 87.5 -45.23 Q76.125 -45.23 66 -50.105 Q55.875 -54.98 48.75 -63.73 Q44.75 -53.98 37.312 -46.792 Q29.875 -39.605 20 -35.98 Q20 -35.73 20 -35.605 Q20 -35.48 20 -35.23 Q20 -18.48 31.625 -6.855 Q43.25 4.77 60 4.77 Z M60 14.77 Q49.625 14.77 40.5 10.833 Q31.375 6.895 24.625 0.145 Q17.875 -6.605 13.938 -15.73 Q10 -24.855 10 -35.23 Q10 -45.605 13.938 -54.73 Q17.875 -63.855 24.625 -70.605 Q31.375 -77.355 40.5 -81.292 Q49.625 -85.23 60 -85.23 Q70.375 -85.23 79.5 -81.292 Q88.625 -77.355 95.375 -70.605 Q102.125 -63.855 106.062 -54.73 Q110 -45.605 110 -35.23 Q110 -24.855 106.062 -15.73 Q102.125 -6.605 95.375 0.145 Q88.625 6.895 79.5 10.833 Q70.375 14.77 60 14.77 Z M53.25 -74.605 Q58.5 -65.855 67.5 -60.542 Q76.5 -55.23 87.5 -55.23 Q89.25 -55.23 90.875 -55.417 Q92.5 -55.605 94.25 -55.855 Q89 -64.605 80 -69.917 Q71 -75.23 60 -75.23 Q58.25 -75.23 56.625 -75.042 Q55 -74.855 53.25 -74.605 Z M22.125 -47.855 Q28.5 -51.48 33.25 -57.23 Q38 -62.98 40.375 -70.105 Q34 -66.48 29.25 -60.73 Q24.5 -54.98 22.125 -47.855 Z"/></g><g id="Light-M" transform="matrix(1 0 0 1 1098.18 1126)"><path d="M45 -23.98 Q42.375 -23.98 40.562 -25.792 Q38.75 -27.605 38.75 -30.23 Q38.75 -32.855 40.562 -34.667 Q42.375 -36.48 45 -36.48 Q47.625 -36.48 49.438 -34.667 Q51.25 -32.855 51.25 -30.23 Q51.25 -27.605 49.438 -25.792 Q47.625 -23.98 45 -23.98 Z M75 -23.98 Q72.375 -23.98 70.562 -25.792 Q68.75 -27.605 68.75 -30.23 Q68.75 -32.855 70.562 -34.667 Q72.375 -36.48 75 -36.48 Q77.625 -36.48 79.438 -34.667 Q81.25 -32.855 81.25 -30.23 Q81.25 -27.605 79.438 -25.792 Q77.625 -23.98 75 -23.98 Z M60 4.77 Q76.75 4.77 88.375 -6.855 Q100 -18.48 100 -35.23 Q100 -38.23 99.625 -41.042 Q99.25 -43.855 98.25 -46.48 Q95.625 -45.855 93 -45.542 Q90.375 -45.23 87.5 -45.23 Q76.125 -45.23 66 -50.105 Q55.875 -54.98 48.75 -63.73 Q44.75 -53.98 37.312 -46.792 Q29.875 -39.605 20 -35.98 Q20 -35.73 20 -35.605 Q20 -35.48 20 -35.23 Q20 -18.48 31.625 -6.855 Q43.25 4.77 60 4.77 Z M60.008 12.27 Q50.154 12.27 41.483 8.53 Q32.812 4.79 26.398 -1.621 Q19.983 -8.033 16.242 -16.7 Q12.5 -25.367 12.5 -35.222 Q12.5 -45.076 16.24 -53.747 Q19.98 -62.418 26.391 -68.832 Q32.803 -75.247 41.47 -78.988 Q50.137 -82.73 59.992 -82.73 Q69.846 -82.73 78.517 -78.99 Q87.188 -75.25 93.602 -68.839 Q100.017 -62.427 103.758 -53.76 Q107.5 -45.093 107.5 -35.238 Q107.5 -25.384 103.76 -16.713 Q100.02 -8.042 93.609 -1.628 Q87.197 4.787 78.53 8.528 Q69.863 12.27 60.008 12.27 Z M50.894 -74.124 Q56.577 -63.643 66.659 -58.186 Q76.74 -52.73 87.5 -52.73 Q89.538 -52.73 91.476 -52.941 Q93.413 -53.153 95.404 -53.547 Q90.394 -63.499 80.889 -69.365 Q71.385 -75.23 60 -75.23 Q57.481 -75.23 55.303 -74.946 Q53.125 -74.663 50.894 -74.124 Z M21.404 -44.778 Q28.452 -48.307 34.789 -55.09 Q41.125 -61.874 42.971 -71.355 Q34.769 -67.634 29.106 -60.658 Q23.442 -53.682 21.404 -44.778 Z"/></g><g id="Thin-M" transform="matrix(1 0 0 1 802.565 1126)"><path d="M45 -23.98 Q42.375 -23.98 40.562 -25.792 Q38.75 -27.605 38.75 -30.23 Q38.75 -32.855 40.562 -34.667 Q42.375 -36.48 45 -36.48 Q47.625 -36.48 49.438 -34.667 Q51.25 -32.855 51.25 -30.23 Q51.25 -27.605 49.438 -25.792 Q47.625 -23.98 45 -23.98 Z M75 -23.98 Q72.375 -23.98 70.562 -25.792 Q68.75 -27.605 68.75 -30.23 Q68.75 -32.855 70.562 -34.667 Q72.375 -36.48 75 -36.48 Q77.625 -36.48 79.438 -34.667 Q81.25 -32.855 81.25 -30.23 Q81.25 -27.605 79.438 -25.792 Q77.625 -23.98 75 -23.98 Z M60 4.77 Q76.75 4.77 88.375 -6.855 Q100 -18.48 100 -35.23 Q100 -38.23 99.625 -41.042 Q99.25 -43.855 98.25 -46.48 Q95.625 -45.855 93 -45.542 Q90.375 -45.23 87.5 -45.23 Q76.125 -45.23 66 -50.105 Q55.875 -54.98 48.75 -63.73 Q44.75 -53.98 37.312 -46.792 Q29.875 -39.605 20 -35.98 Q20 -35.73 20 -35.605 Q20 -35.48 20 -35.23 Q20 -18.48 31.625 -6.855 Q43.25 4.77 60 4.77 Z M60.017 9.77 Q50.683 9.77 42.465 6.228 Q34.248 2.685 28.17 -3.388 Q22.091 -9.46 18.546 -17.67 Q15 -25.879 15 -35.213 Q15 -44.547 18.542 -52.764 Q22.085 -60.982 28.158 -67.06 Q34.23 -73.138 42.44 -76.684 Q50.649 -80.23 59.983 -80.23 Q69.317 -80.23 77.534 -76.688 Q85.752 -73.145 91.83 -67.072 Q97.909 -61 101.454 -52.79 Q105 -44.581 105 -35.247 Q105 -25.913 101.458 -17.695 Q97.915 -9.478 91.842 -3.4 Q85.77 2.679 77.56 6.224 Q69.351 9.77 60.017 9.77 Z M48.538 -73.643 Q54.654 -61.432 65.817 -55.831 Q76.981 -50.23 87.5 -50.23 Q89.827 -50.23 92.077 -50.466 Q94.327 -50.701 96.558 -51.24 Q91.788 -62.393 81.779 -68.812 Q71.769 -75.23 60 -75.23 Q56.712 -75.23 53.981 -74.85 Q51.25 -74.47 48.538 -73.643 Z M20.683 -41.701 Q28.404 -45.134 36.327 -52.951 Q44.25 -60.768 45.567 -72.605 Q35.538 -68.788 28.962 -60.586 Q22.385 -52.384 20.683 -41.701 Z"/></g><g id="Ultralight-M" transform="matrix(1 0 0 1 506.415 1126)"><path d="M45 -23.98 Q42.375 -23.98 40.562 -25.792 Q38.75 -27.605 38.75 -30.23 Q38.75 -32.855 40.562 -34.667 Q42.375 -36.48 45 -36.48 Q47.625 -36.48 49.438 -34.667 Q51.25 -32.855 51.25 -30.23 Q51.25 -27.605 49.438 -25.792 Q47.625 -23.98 45 -23.98 Z M75 -23.98 Q72.375 -23.98 70.562 -25.792 Q68.75 -27.605 68.75 -30.23 Q68.75 -32.855 70.562 -34.667 Q72.375 -36.48 75 -36.48 Q77.625 -36.48 79.438 -34.667 Q81.25 -32.855 81.25 -30.23 Q81.25 -27.605 79.438 -25.792 Q77.625 -23.98 75 -23.98 Z M60 4.77 Q76.75 4.77 88.375 -6.855 Q100 -18.48 100 -35.23 Q100 -38.23 99.625 -41.042 Q99.25 -43.855 98.25 -46.48 Q95.625 -45.855 93 -45.542 Q90.375 -45.23 87.5 -45.23 Q76.125 -45.23 66 -50.105 Q55.875 -54.98 48.75 -63.73 Q44.75 -53.98 37.312 -46.792 Q29.875 -39.605 20 -35.98 Q20 -35.73 20 -35.605 Q20 -35.48 20 -35.23 Q20 -18.48 31.625 -6.855 Q43.25 4.77 60 4.77 Z M60.022 8.27 Q51 8.27 43.055 4.846 Q35.11 1.422 29.233 -4.447 Q23.357 -10.317 19.928 -18.252 Q16.5 -26.186 16.5 -35.208 Q16.5 -44.23 19.924 -52.175 Q23.348 -60.12 29.217 -65.996 Q35.087 -71.873 43.022 -75.302 Q50.956 -78.73 59.978 -78.73 Q69 -78.73 76.945 -75.306 Q84.89 -71.882 90.766 -66.013 Q96.644 -60.143 100.072 -52.208 Q103.5 -44.273 103.5 -35.252 Q103.5 -26.23 100.076 -18.285 Q96.652 -10.34 90.783 -4.463 Q84.913 1.414 76.978 4.842 Q69.043 8.27 60.022 8.27 Z M47.125 -73.355 Q53.5 -60.105 65.312 -54.417 Q77.125 -48.73 87.5 -48.73 Q90 -48.73 92.438 -48.98 Q94.875 -49.23 97.25 -49.855 Q92.625 -61.73 82.312 -68.48 Q72 -75.23 60 -75.23 Q56.25 -75.23 53.188 -74.792 Q50.125 -74.355 47.125 -73.355 Z M20.25 -39.855 Q28.375 -43.23 37.25 -51.667 Q46.125 -60.105 47.125 -73.355 Q36 -69.48 28.875 -60.542 Q21.75 -51.605 20.25 -39.855 Z"/></g><g id="Bold-S" transform="matrix(1 0 0 1 2294.23 696)"><path d="M36.009 -27.833 Q33.828 -27.833 32.398 -29.252 Q30.968 -30.671 30.968 -32.852 Q30.968 -35.033 32.387 -36.463 Q33.806 -37.893 35.987 -37.893 Q38.168 -37.893 39.598 -36.474 Q41.028 -35.055 41.028 -32.874 Q41.028 -30.693 39.609 -29.263 Q38.19 -27.833 36.009 -27.833 Z M58.693 -27.833 Q56.512 -27.833 55.082 -29.252 Q53.652 -30.671 53.652 -32.852 Q53.652 -35.033 55.071 -36.463 Q56.49 -37.893 58.671 -37.893 Q60.852 -37.893 62.282 -36.474 Q63.712 -35.055 63.712 -32.874 Q63.712 -30.693 62.293 -29.263 Q60.874 -27.833 58.693 -27.833 Z M47.385 -5.642 Q59.66 -5.642 68.343 -14.216 Q77.026 -22.79 77.026 -35.009 Q77.026 -37.301 76.533 -40.065 Q76.04 -42.829 75.251 -44.895 Q73.18 -44.402 71.651 -44.254 Q70.122 -44.106 67.854 -44.106 Q59.672 -44.106 52.47 -47.262 Q45.269 -50.418 39.45 -56.434 Q35.998 -49.136 30.623 -44.353 Q25.248 -39.569 18.048 -37.005 Q17.95 -36.611 17.9 -36.019 Q17.851 -35.427 17.851 -35.033 Q17.851 -22.79 26.481 -14.216 Q35.111 -5.642 47.385 -5.642 Z M47.439 5.995 Q38.931 5.995 31.448 2.79 Q23.966 -0.415 18.295 -6.086 Q12.624 -11.757 9.419 -19.257 Q6.213 -26.756 6.213 -35.283 Q6.213 -43.81 9.419 -51.306 Q12.624 -58.801 18.295 -64.423 Q23.966 -70.045 31.466 -73.25 Q38.965 -76.455 47.492 -76.455 Q56.019 -76.455 63.466 -73.226 Q70.913 -69.997 76.513 -64.391 Q82.114 -58.786 85.339 -51.274 Q88.565 -43.762 88.565 -35.222 Q88.565 -26.711 85.36 -19.234 Q82.155 -11.757 76.533 -6.086 Q70.911 -0.415 63.429 2.79 Q55.946 5.995 47.439 5.995 Z M41.916 -65.508 Q46.452 -59.294 53.455 -55.547 Q60.457 -51.799 68.643 -51.799 Q69.827 -51.799 70.714 -51.848 Q71.602 -51.898 72.983 -52.092 Q68.15 -58.9 61.641 -62.45 Q55.131 -66.001 47.388 -66.001 Q46.157 -66.001 44.778 -65.853 Q43.4 -65.705 41.916 -65.508 Z M18.443 -45.586 Q24.065 -48.446 27.812 -52.637 Q31.56 -56.829 33.73 -62.648 Q27.516 -58.999 23.867 -54.955 Q20.218 -50.911 18.443 -45.586 Z"/></g><g id="Semibold-S" transform="matrix(1 0 0 1 1998.1 696)"><path d="M35.795 -27.962 Q33.7 -27.962 32.291 -29.359 Q30.882 -30.757 30.882 -32.852 Q30.882 -34.947 32.28 -36.356 Q33.677 -37.764 35.773 -37.764 Q37.868 -37.764 39.276 -36.367 Q40.685 -34.969 40.685 -32.874 Q40.685 -30.779 39.287 -29.37 Q37.89 -27.962 35.795 -27.962 Z M58.907 -27.962 Q56.812 -27.962 55.404 -29.359 Q53.995 -30.757 53.995 -32.852 Q53.995 -34.947 55.393 -36.356 Q56.79 -37.764 58.885 -37.764 Q60.98 -37.764 62.389 -36.367 Q63.798 -34.969 63.798 -32.874 Q63.798 -30.779 62.4 -29.37 Q61.003 -27.962 58.907 -27.962 Z M47.385 -5.128 Q59.917 -5.128 68.708 -13.876 Q77.498 -22.624 77.498 -35.095 Q77.498 -37.387 77.005 -40.214 Q76.511 -43.041 75.722 -45.153 Q73.651 -44.659 72.058 -44.512 Q70.465 -44.364 68.197 -44.364 Q59.886 -44.364 52.535 -47.584 Q45.183 -50.804 39.321 -56.906 Q35.784 -49.436 30.323 -44.546 Q24.862 -39.655 17.491 -37.091 Q17.392 -36.697 17.343 -36.105 Q17.294 -35.513 17.294 -35.119 Q17.294 -22.624 26.073 -13.876 Q34.853 -5.128 47.385 -5.128 Z M47.396 4.537 Q39.183 4.537 31.961 1.439 Q24.738 -1.659 19.281 -7.115 Q13.825 -12.572 10.726 -19.811 Q7.628 -27.049 7.628 -35.28 Q7.628 -43.51 10.726 -50.748 Q13.825 -57.987 19.281 -63.394 Q24.738 -68.801 31.976 -71.899 Q39.215 -74.997 47.446 -74.997 Q55.676 -74.997 62.887 -71.876 Q70.098 -68.754 75.484 -63.362 Q80.87 -57.971 83.989 -50.72 Q87.107 -43.469 87.107 -35.225 Q87.107 -27.011 84.009 -19.792 Q80.911 -12.572 75.504 -7.115 Q70.097 -1.659 62.86 1.439 Q55.624 4.537 47.396 4.537 Z M41.916 -65.508 Q46.452 -59.294 53.455 -55.547 Q60.457 -51.799 68.643 -51.799 Q69.827 -51.799 70.714 -51.848 Q71.602 -51.898 72.983 -52.092 Q68.15 -58.9 61.641 -62.45 Q55.131 -66.001 47.388 -66.001 Q46.157 -66.001 44.778 -65.853 Q43.4 -65.705 41.916 -65.508 Z M18.443 -45.586 Q24.065 -48.446 27.812 -52.637 Q31.56 -56.829 33.73 -62.648 Q27.516 -58.999 23.867 -54.955 Q20.218 -50.911 18.443 -45.586 Z"/></g><g id="Medium-S" transform="matrix(1 0 0 1 1701.85 696)"><path d="M35.634 -28.058 Q33.603 -28.058 32.211 -29.44 Q30.818 -30.821 30.818 -32.852 Q30.818 -34.883 32.2 -36.275 Q33.581 -37.668 35.612 -37.668 Q37.643 -37.668 39.035 -36.286 Q40.428 -34.905 40.428 -32.874 Q40.428 -30.843 39.046 -29.451 Q37.665 -28.058 35.634 -28.058 Z M59.068 -28.058 Q57.037 -28.058 55.645 -29.44 Q54.252 -30.821 54.252 -32.852 Q54.252 -34.883 55.634 -36.275 Q57.015 -37.668 59.046 -37.668 Q61.077 -37.668 62.469 -36.286 Q63.862 -34.905 63.862 -32.874 Q63.862 -30.843 62.48 -29.451 Q61.099 -28.058 59.068 -28.058 Z M47.385 -4.742 Q60.11 -4.742 68.981 -13.621 Q77.852 -22.5 77.852 -35.159 Q77.852 -37.451 77.358 -40.326 Q76.865 -43.2 76.076 -45.345 Q74.005 -44.852 72.364 -44.704 Q70.723 -44.556 68.454 -44.556 Q60.047 -44.556 52.583 -47.825 Q45.119 -51.094 39.225 -57.26 Q35.623 -49.661 30.098 -44.691 Q24.573 -39.72 17.073 -37.155 Q16.974 -36.761 16.925 -36.169 Q16.876 -35.577 16.876 -35.183 Q16.876 -22.5 25.768 -13.621 Q34.66 -4.742 47.385 -4.742 Z M47.364 3.444 Q39.373 3.444 32.345 0.426 Q25.317 -2.592 20.021 -7.887 Q14.725 -13.183 11.707 -20.226 Q8.69 -27.269 8.69 -35.277 Q8.69 -43.285 11.707 -50.33 Q14.725 -57.376 20.021 -62.622 Q25.317 -67.868 32.36 -70.886 Q39.403 -73.904 47.411 -73.904 Q55.419 -73.904 62.453 -70.863 Q69.487 -67.821 74.712 -62.59 Q79.937 -57.36 82.976 -50.305 Q86.014 -43.25 86.014 -35.228 Q86.014 -27.237 82.996 -20.21 Q79.978 -13.183 74.732 -7.887 Q69.486 -2.592 62.434 0.426 Q55.382 3.444 47.364 3.444 Z M41.916 -65.508 Q46.452 -59.294 53.455 -55.547 Q60.457 -51.799 68.643 -51.799 Q69.827 -51.799 70.714 -51.848 Q71.602 -51.898 72.983 -52.092 Q68.15 -58.9 61.641 -62.45 Q55.131 -66.001 47.388 -66.001 Q46.157 -66.001 44.778 -65.853 Q43.4 -65.705 41.916 -65.508 Z M18.443 -45.586 Q24.065 -48.446 27.812 -52.637 Q31.56 -56.829 33.73 -62.648 Q27.516 -58.999 23.867 -54.955 Q20.218 -50.911 18.443 -45.586 Z"/></g><g id="Regular-S" transform="matrix(1 0 0 1 1405.73 696)"><path d="M35.516 -28.129 Q33.532 -28.129 32.152 -29.499 Q30.771 -30.868 30.771 -32.852 Q30.771 -34.835 32.141 -36.216 Q33.51 -37.597 35.494 -37.597 Q37.477 -37.597 38.858 -36.227 Q40.239 -34.858 40.239 -32.874 Q40.239 -30.89 38.869 -29.51 Q37.5 -28.129 35.516 -28.129 Z M59.186 -28.129 Q57.203 -28.129 55.822 -29.499 Q54.441 -30.868 54.441 -32.852 Q54.441 -34.835 55.811 -36.216 Q57.18 -37.597 59.164 -37.597 Q61.148 -37.597 62.528 -36.227 Q63.909 -34.858 63.909 -32.874 Q63.909 -30.89 62.539 -29.51 Q61.17 -28.129 59.186 -28.129 Z M47.385 -4.459 Q60.252 -4.459 69.181 -13.434 Q78.111 -22.409 78.111 -35.206 Q78.111 -37.498 77.618 -40.408 Q77.125 -43.317 76.336 -45.487 Q74.265 -44.994 72.588 -44.846 Q70.911 -44.698 68.643 -44.698 Q60.165 -44.698 52.618 -48.002 Q45.072 -51.306 39.154 -57.519 Q35.505 -49.826 29.933 -44.797 Q24.36 -39.767 16.766 -37.202 Q16.668 -36.808 16.618 -36.216 Q16.569 -35.624 16.569 -35.23 Q16.569 -22.409 25.544 -13.434 Q34.519 -4.459 47.385 -4.459 Z M47.34 2.642 Q39.512 2.642 32.626 -0.317 Q25.741 -3.275 20.563 -8.453 Q15.386 -13.631 12.427 -20.531 Q9.468 -27.43 9.468 -35.275 Q9.468 -43.12 12.427 -50.024 Q15.386 -56.927 20.563 -62.056 Q25.741 -67.184 32.641 -70.143 Q39.54 -73.102 47.385 -73.102 Q55.23 -73.102 62.134 -70.12 Q69.039 -67.137 74.146 -62.024 Q79.253 -56.912 82.233 -50 Q85.212 -43.088 85.212 -35.23 Q85.212 -27.402 82.253 -20.516 Q79.294 -13.631 74.166 -8.453 Q69.038 -3.275 62.121 -0.317 Q55.204 2.642 47.34 2.642 Z M41.916 -65.508 Q46.452 -59.294 53.455 -55.547 Q60.457 -51.799 68.643 -51.799 Q69.827 -51.799 70.714 -51.848 Q71.602 -51.898 72.983 -52.092 Q68.15 -58.9 61.641 -62.45 Q55.131 -66.001 47.388 -66.001 Q46.157 -66.001 44.778 -65.853 Q43.4 -65.705 41.916 -65.508 Z M18.443 -45.586 Q24.065 -48.446 27.812 -52.637 Q31.56 -56.829 33.73 -62.648 Q27.516 -58.999 23.867 -54.955 Q20.218 -50.911 18.443 -45.586 Z"/></g><g id="Light-S" transform="matrix(1 0 0 1 1109.75 696)"><path d="M35.516 -28.129 Q33.532 -28.129 32.152 -29.499 Q30.771 -30.868 30.771 -32.852 Q30.771 -34.835 32.141 -36.216 Q33.51 -37.597 35.494 -37.597 Q37.477 -37.597 38.858 -36.227 Q40.239 -34.858 40.239 -32.874 Q40.239 -30.89 38.869 -29.51 Q37.5 -28.129 35.516 -28.129 Z M59.186 -28.129 Q57.203 -28.129 55.822 -29.499 Q54.441 -30.868 54.441 -32.852 Q54.441 -34.835 55.811 -36.216 Q57.18 -37.597 59.164 -37.597 Q61.148 -37.597 62.528 -36.227 Q63.909 -34.858 63.909 -32.874 Q63.909 -30.89 62.539 -29.51 Q61.17 -28.129 59.186 -28.129 Z M47.385 -4.459 Q60.252 -4.459 69.181 -13.434 Q78.111 -22.409 78.111 -35.206 Q78.111 -37.498 77.618 -40.408 Q77.125 -43.317 76.336 -45.487 Q74.265 -44.994 72.588 -44.846 Q70.911 -44.698 68.643 -44.698 Q60.165 -44.698 52.618 -48.002 Q45.072 -51.306 39.154 -57.519 Q35.505 -49.826 29.933 -44.797 Q24.36 -39.767 16.766 -37.202 Q16.668 -36.808 16.618 -36.216 Q16.569 -35.624 16.569 -35.23 Q16.569 -22.409 25.544 -13.434 Q34.519 -4.459 47.385 -4.459 Z M47.347 0.669 Q39.929 0.669 33.402 -2.134 Q26.875 -4.936 21.962 -9.847 Q17.049 -14.758 14.245 -21.296 Q11.441 -27.835 11.441 -35.269 Q11.441 -42.703 14.244 -49.248 Q17.046 -55.794 21.957 -60.657 Q26.868 -65.521 33.406 -68.325 Q39.945 -71.129 47.379 -71.129 Q54.813 -71.129 61.359 -68.303 Q67.905 -65.476 72.747 -60.631 Q77.59 -55.785 80.415 -49.235 Q83.239 -42.684 83.239 -35.237 Q83.239 -27.819 80.436 -21.292 Q77.634 -14.765 72.772 -9.852 Q67.911 -4.939 61.356 -2.135 Q54.8 0.669 47.347 0.669 Z M40.057 -65.129 Q44.935 -57.549 52.791 -53.688 Q60.647 -49.826 68.643 -49.826 Q70.054 -49.826 71.188 -49.895 Q72.323 -49.963 73.893 -50.271 Q69.25 -58.027 62.342 -62.014 Q55.435 -66.001 47.388 -66.001 Q45.55 -66.001 43.735 -65.777 Q41.92 -65.553 40.057 -65.129 Z M17.874 -43.158 Q24.027 -45.942 29.026 -50.949 Q34.026 -55.956 35.778 -63.634 Q28.123 -59.909 23.753 -54.898 Q19.384 -49.887 17.874 -43.158 Z"/></g><g id="Thin-S" transform="matrix(1 0 0 1 814.015 696)"><path d="M35.516 -28.129 Q33.532 -28.129 32.152 -29.499 Q30.771 -30.868 30.771 -32.852 Q30.771 -34.835 32.141 -36.216 Q33.51 -37.597 35.494 -37.597 Q37.477 -37.597 38.858 -36.227 Q40.239 -34.858 40.239 -32.874 Q40.239 -30.89 38.869 -29.51 Q37.5 -28.129 35.516 -28.129 Z M59.186 -28.129 Q57.203 -28.129 55.822 -29.499 Q54.441 -30.868 54.441 -32.852 Q54.441 -34.835 55.811 -36.216 Q57.18 -37.597 59.164 -37.597 Q61.148 -37.597 62.528 -36.227 Q63.909 -34.858 63.909 -32.874 Q63.909 -30.89 62.539 -29.51 Q61.17 -28.129 59.186 -28.129 Z M47.385 -4.459 Q60.252 -4.459 69.181 -13.434 Q78.111 -22.409 78.111 -35.206 Q78.111 -37.498 77.618 -40.408 Q77.125 -43.317 76.336 -45.487 Q74.265 -44.994 72.588 -44.846 Q70.911 -44.698 68.643 -44.698 Q60.165 -44.698 52.618 -48.002 Q45.072 -51.306 39.154 -57.519 Q35.505 -49.826 29.933 -44.797 Q24.36 -39.767 16.766 -37.202 Q16.668 -36.808 16.618 -36.216 Q16.569 -35.624 16.569 -35.23 Q16.569 -22.409 25.544 -13.434 Q34.519 -4.459 47.385 -4.459 Z M47.353 -1.303 Q40.346 -1.303 34.177 -3.95 Q28.008 -6.597 23.36 -11.241 Q18.712 -15.884 16.063 -22.061 Q13.413 -28.239 13.413 -35.262 Q13.413 -42.286 16.06 -48.473 Q18.707 -54.66 23.351 -59.259 Q27.994 -63.858 34.171 -66.507 Q40.349 -69.157 47.372 -69.157 Q54.396 -69.157 60.584 -66.486 Q66.772 -63.816 71.349 -59.237 Q75.927 -54.659 78.597 -48.47 Q81.267 -42.28 81.267 -35.243 Q81.267 -28.236 78.62 -22.067 Q75.973 -15.898 71.379 -11.25 Q66.785 -6.602 60.59 -3.953 Q54.396 -1.303 47.353 -1.303 Z M38.198 -64.749 Q43.418 -55.805 52.127 -51.829 Q60.836 -47.854 68.643 -47.854 Q70.282 -47.854 71.662 -47.941 Q73.043 -48.028 74.803 -48.451 Q70.35 -57.155 63.044 -61.578 Q55.738 -66.001 47.388 -66.001 Q44.943 -66.001 42.692 -65.701 Q40.441 -65.402 38.198 -64.749 Z M17.305 -40.73 Q23.989 -43.439 30.24 -49.261 Q36.491 -55.084 37.826 -64.62 Q28.73 -60.819 23.64 -54.841 Q18.549 -48.863 17.305 -40.73 Z"/></g><g id="Ultralight-S" transform="matrix(1 0 0 1 517.792 696)"><path d="M35.516 -28.129 Q33.532 -28.129 32.152 -29.499 Q30.771 -30.868 30.771 -32.852 Q30.771 -34.835 32.141 -36.216 Q33.51 -37.597 35.494 -37.597 Q37.477 -37.597 38.858 -36.227 Q40.239 -34.858 40.239 -32.874 Q40.239 -30.89 38.869 -29.51 Q37.5 -28.129 35.516 -28.129 Z M59.186 -28.129 Q57.203 -28.129 55.822 -29.499 Q54.441 -30.868 54.441 -32.852 Q54.441 -34.835 55.811 -36.216 Q57.18 -37.597 59.164 -37.597 Q61.148 -37.597 62.528 -36.227 Q63.909 -34.858 63.909 -32.874 Q63.909 -30.89 62.539 -29.51 Q61.17 -28.129 59.186 -28.129 Z M47.385 -4.459 Q60.252 -4.459 69.181 -13.434 Q78.111 -22.409 78.111 -35.206 Q78.111 -37.498 77.618 -40.408 Q77.125 -43.317 76.336 -45.487 Q74.265 -44.994 72.588 -44.846 Q70.911 -44.698 68.643 -44.698 Q60.165 -44.698 52.618 -48.002 Q45.072 -51.306 39.154 -57.519 Q35.505 -49.826 29.933 -44.797 Q24.36 -39.767 16.766 -37.202 Q16.668 -36.808 16.618 -36.216 Q16.569 -35.624 16.569 -35.23 Q16.569 -22.409 25.544 -13.434 Q34.519 -4.459 47.385 -4.459 Z M47.357 -2.486 Q40.596 -2.486 34.642 -5.04 Q28.688 -7.594 24.199 -12.077 Q19.71 -16.56 17.153 -22.52 Q14.597 -28.481 14.597 -35.258 Q14.597 -42.035 17.15 -48.008 Q19.704 -53.98 24.187 -58.42 Q28.67 -62.86 34.63 -65.417 Q40.591 -67.973 47.368 -67.973 Q54.145 -67.973 60.118 -65.396 Q66.091 -62.819 70.51 -58.401 Q74.929 -53.983 77.506 -48.01 Q80.084 -42.038 80.084 -35.247 Q80.084 -28.486 77.53 -22.532 Q74.976 -16.578 70.543 -12.089 Q66.109 -7.6 60.131 -5.043 Q54.154 -2.486 47.357 -2.486 Z M37.083 -64.522 Q42.507 -54.758 51.729 -50.714 Q60.95 -46.67 68.643 -46.67 Q70.418 -46.67 71.947 -46.769 Q73.476 -46.868 75.35 -47.358 Q71.01 -56.632 63.465 -61.316 Q55.92 -66.001 47.388 -66.001 Q44.579 -66.001 42.066 -65.656 Q39.554 -65.311 37.083 -64.522 Z M16.963 -39.274 Q23.966 -41.936 30.968 -48.248 Q37.971 -54.56 39.056 -65.212 Q29.094 -61.366 23.571 -54.807 Q18.048 -48.248 16.963 -39.274 Z"/></g></g></svg>