<svg xmlns="http://www.w3.org/2000/svg" height="40" viewBox="0 -960 960 960" width="40"><path d="M480-431.232q-38.645 0-64.655-27.064-26.01-27.064-26.01-66.166v-245.282q0-37.649 26.304-63.952 26.305-26.303 64.322-26.303t64.361 26.303q26.343 26.303 26.343 63.952v245.282q0 39.102-26.01 66.166T480-431.232Zm0-214.05Zm-.121 515.281q-10.75 0-17.878-7.214-7.128-7.215-7.128-17.913v-113.079q-93-9.615-158.692-74.166-65.693-64.551-74.744-155.525-1.436-10.872 6.205-18.718t19.538-7.846q8.803 0 15.747 6.846 6.945 6.846 8.765 16.487 8.846 78.359 68.322 131.231 59.475 52.872 139.867 52.872t139.987-52.872q59.594-52.872 68.44-131.231 1.865-9.786 8.889-16.559 7.023-6.774 16.243-6.774 11.687 0 19.123 7.846 7.436 7.846 6 18.718-9.051 90.974-74.744 155.525-65.692 64.551-158.692 74.166v113.079q0 10.698-7.249 17.913-7.249 7.214-17.999 7.214ZM480-481.487q17.41 0 28.91-12.449t11.5-30.629v-245.179q0-17-11.618-28.5T480-809.744q-17.174 0-28.792 11.5-11.618 11.5-11.618 28.5v245.282q0 18.077 11.5 30.526 11.5 12.449 28.91 12.449Z"/></svg>