<svg xmlns="http://www.w3.org/2000/svg" height="40" viewBox="0 -960 960 960" width="40"><path d="M480.078-326.667q72.255 0 122.755-50.578 50.5-50.579 50.5-122.833 0-72.255-50.578-122.755-50.579-50.5-122.833-50.5-72.255 0-122.755 50.578-50.5 50.579-50.5 122.833 0 72.255 50.578 122.755 50.579 50.5 122.833 50.5Zm-.235-62.666q-46.176 0-78.343-32.324-32.167-32.323-32.167-78.5 0-46.176 32.324-78.343 32.323-32.167 78.5-32.167 46.176 0 78.343 32.324 32.167 32.323 32.167 78.5 0 46.176-32.324 78.343-32.323 32.167-78.5 32.167ZM480-200q-138.333 0-252.333-74.5T52.763-472.718q-3.096-4.949-4.43-12.231Q47-492.232 47-500t1.333-15.051q1.334-7.282 4.43-12.231Q113.668-651 227.667-725.5 341.667-800 480-800t252.333 74.5q114 74.5 174.904 198.218 3.096 4.949 4.43 12.231Q913-507.768 913-500t-1.333 15.051q-1.334 7.282-4.43 12.231Q846.333-349 732.333-274.5 618.333-200 480-200Zm0-300Zm-.112 233.334q118.445 0 217.612-63.5Q796.667-393.667 848.667-500q-52-106.333-151.054-169.834-99.055-63.5-217.501-63.5-118.445 0-217.612 63.5Q163.333-606.333 110.666-500q52.667 106.333 151.721 169.834 99.055 63.5 217.501 63.5Z"/></svg>