<svg xmlns="http://www.w3.org/2000/svg" version="1.1" width="3300" height="2000"><g id="Notes"><style>
    text {
      font-family: monospace;
      text-anchor: middle;
    }
    text.emphasis {
      font-weight:bold;
    }
    text.lanchor {
      text-anchor: start;
    }
  </style><rect height="2200" id="artboard" fill="white" width="3300" x="0" y="0"/><line id="" style="fill:none;stroke:black;stroke-width:0.5;" x1="263" x2="3036" y1="292" y2="292"/><text class="lanchor emphasis" transform="matrix(1 0 0 1 263 322)">Weight/Scale Variations</text><text transform="matrix(1 0 0 1 559.711 322)">Ultralight</text><text transform="matrix(1 0 0 1 856.422 322)">Thin</text><text transform="matrix(1 0 0 1 1153.13 322)">Light</text><text transform="matrix(1 0 0 1 1449.84 322)">Regular</text><text transform="matrix(1 0 0 1 1746.56 322)">Medium</text><text transform="matrix(1 0 0 1 2043.27 322)">Semibold</text><text transform="matrix(1 0 0 1 2339.98 322)">Bold</text><text transform="matrix(1 0 0 1 2636.69 322)">Heavy</text><text transform="matrix(1 0 0 1 2933.4 322)">Black</text><text id="template-version" style="text-anchor: end;" transform="matrix(1 0 0 1 3036 1933)">Template v.1.0</text><text class="lanchor" transform="matrix(1 0 0 1 263 726)">Small</text><text class="lanchor" transform="matrix(1 0 0 1 263 1156)">Medium</text><text class="lanchor" transform="matrix(1 0 0 1 263 1586)">Large</text></g><g id="Guides"><g id="H-reference" style="fill:#27AAE1;stroke:none;" transform="matrix(1 0 0 1 339 696)"><path d="M 54.9316 0 L 57.666 0 L 30.5664 -70.459 L 28.0762 -70.459 L 0.976562 0 L 3.66211 0 L 12.9395 -24.4629 L 45.7031 -24.4629 Z M 29.1992 -67.0898 L 29.4434 -67.0898 L 44.8242 -26.709 L 13.8184 -26.709 Z"/></g><line id="Baseline-S" style="fill:none;stroke:#27AAE1;opacity:1;stroke-width:0.577;" x1="263" x2="3036" y1="696" y2="696"/><line id="Capline-S" style="fill:none;stroke:#27AAE1;opacity:1;stroke-width:0.577;" x1="263" x2="3036" y1="625.541" y2="625.541"/><g id="H-reference" style="fill:#27AAE1;stroke:none;" transform="matrix(1 0 0 1 339 1126)"><path d="M 54.9316 0 L 57.666 0 L 30.5664 -70.459 L 28.0762 -70.459 L 0.976562 0 L 3.66211 0 L 12.9395 -24.4629 L 45.7031 -24.4629 Z M 29.1992 -67.0898 L 29.4434 -67.0898 L 44.8242 -26.709 L 13.8184 -26.709 Z"/></g><line id="Baseline-M" style="fill:none;stroke:#27AAE1;opacity:1;stroke-width:0.577;" x1="263" x2="3036" y1="1126" y2="1126"/><line id="Capline-M" style="fill:none;stroke:#27AAE1;opacity:1;stroke-width:0.577;" x1="263" x2="3036" y1="1055.54" y2="1055.54"/><g id="H-reference" style="fill:#27AAE1;stroke:none;" transform="matrix(1 0 0 1 339 1556)"><path d="M 54.9316 0 L 57.666 0 L 30.5664 -70.459 L 28.0762 -70.459 L 0.976562 0 L 3.66211 0 L 12.9395 -24.4629 L 45.7031 -24.4629 Z M 29.1992 -67.0898 L 29.4434 -67.0898 L 44.8242 -26.709 L 13.8184 -26.709 Z"/></g><line id="Baseline-L" style="fill:none;stroke:#27AAE1;opacity:1;stroke-width:0.577;" x1="263" x2="3036" y1="1556" y2="1556"/><line id="Capline-L" style="fill:none;stroke:#27AAE1;opacity:1;stroke-width:0.577;" x1="263" x2="3036" y1="1485.54" y2="1485.54"/><rect height="119.336" id="left-margin" style="fill:darkred;stroke:none;opacity:0.4;" width="12.4512" x="1394.06" y="1030.79"/><rect height="119.336" id="right-margin" style="fill:darkgreen;stroke:none;opacity:0.4;" width="12.4512" x="1502.5112" y="1030.79"/><rect x="1406.5112" y="1045" width="96" height="96" fill="none" stroke="blue" stroke-dasharray="5"/><rect x="1394.06" y="1030.79" width="120.9024" height="119.336" fill="none" stroke="blue"/></g><g id="Symbols"><g id="Bold-L" transform="matrix(1 0 0 1 2266 1556)"><path d="M23.704 7.501 Q17.415 0.084 13.464 -10.236 Q9.514 -20.556 9.191 -30.392 H24.51 Q25.155 -22.975 27.816 -16.283 Q30.476 -9.591 35.153 -3.786 L23.704 7.501 Z M9.191 -43.292 Q9.03 -53.129 13.223 -63.449 Q17.415 -73.769 23.704 -81.186 L35.153 -69.899 Q30.637 -63.771 27.896 -57.241 Q25.155 -50.71 24.51 -43.292 H9.191 Z M71.434 31.85 Q61.598 31.044 51.116 27.093 Q40.635 23.143 33.218 17.338 L44.666 5.728 Q50.633 9.92 57.244 12.581 Q63.855 15.241 71.434 16.693 V31.85 Z M44.989 -79.412  33.218 -91.184 Q40.796 -97.311 51.278 -101.02 Q61.759 -104.729 71.595 -105.696 V-90.377 Q64.177 -88.926 57.647 -86.427 Q51.116 -83.927 44.989 -79.412 Z M61.436 -7.656 V-66.19 L107.392 -36.842 L61.436 -7.656 Z M84.495 31.85 V16.693 Q104.49 13.629 117.632 -1.529 Q130.774 -16.686 130.774 -36.842 Q130.774 -56.999 117.632 -72.156 Q104.49 -87.314 84.495 -90.377 V-105.696 Q111.101 -103.439 128.597 -83.605 Q146.093 -63.771 146.093 -36.842 Q146.093 -9.914 128.597 9.839 Q111.101 29.593 84.495 31.85 Z"/></g><g id="Semibold-L" transform="matrix(1 0 0 1 1970.27 1556)"><path d="M25.036 6.169 Q18.817 -1.178 15.077 -10.902 Q11.337 -20.626 10.874 -30.392 H23.879 Q24.594 -22.905 27.29 -16.038 Q29.986 -9.171 34.732 -3.366 L25.036 6.169 Z M10.874 -43.292 Q10.923 -53.059 14.87 -62.748 Q18.817 -72.437 25.036 -79.854 L34.732 -70.319 Q30.147 -64.192 27.37 -57.486 Q24.594 -50.78 23.879 -43.292 H10.874 Z M71.293 30.097 Q61.598 29.081 51.817 25.446 Q42.037 21.811 34.549 16.076 L44.246 6.148 Q50.282 10.341 57.033 13.141 Q63.785 15.942 71.293 17.323 V30.097 Z M44.568 -79.833  34.549 -89.852 Q42.198 -95.839 52.014 -99.303 Q61.829 -102.766 71.595 -103.873 V-91.008 Q64.107 -89.627 57.401 -86.988 Q50.696 -84.348 44.568 -79.833 Z M61.857 -8.357 V-65.419 L106.621 -36.842 L61.857 -8.357 Z M84.495 30.097 V17.323 Q104.77 14.26 118.088 -1.073 Q131.405 -16.406 131.405 -36.842 Q131.405 -57.279 118.088 -72.612 Q104.77 -87.945 84.495 -91.008 V-103.873 Q110.33 -101.546 127.3 -82.238 Q144.27 -62.93 144.27 -36.842 Q144.27 -10.755 127.3 8.472 Q110.33 27.7 84.495 30.097 Z"/></g><g id="Medium-L" transform="matrix(1 0 0 1 1674.31 1556)"><path d="M26.035 5.17 Q19.869 -2.125 16.286 -11.402 Q12.704 -20.679 12.136 -30.392 H23.406 Q24.173 -22.852 26.896 -15.854 Q29.617 -8.855 34.416 -3.05 L26.035 5.17 Z M12.136 -43.292 Q12.343 -53.006 16.106 -62.222 Q19.869 -71.438 26.035 -78.855 L34.416 -70.635 Q29.779 -64.507 26.976 -57.67 Q24.173 -50.833 23.406 -43.292 H12.136 Z M71.188 28.783 Q61.598 27.608 52.343 24.21 Q43.089 20.811 35.549 15.129 L43.93 6.464 Q50.019 10.656 56.876 13.562 Q63.732 16.468 71.188 17.797 V28.783 Z M44.253 -80.149  35.549 -88.853 Q43.25 -94.735 52.566 -98.014 Q61.881 -101.293 71.595 -102.506 V-91.482 Q64.055 -90.153 57.217 -87.408 Q50.38 -84.664 44.253 -80.149 Z M62.172 -8.883 V-64.84 L106.043 -36.842 L62.172 -8.883 Z M84.495 28.783 V17.797 Q104.981 14.733 118.429 -0.731 Q131.878 -16.196 131.878 -36.842 Q131.878 -57.489 118.429 -72.954 Q104.981 -88.418 84.495 -91.482 V-102.506 Q109.752 -100.126 126.327 -81.213 Q142.903 -62.299 142.903 -36.842 Q142.903 -11.386 126.327 7.447 Q109.752 26.28 84.495 28.783 Z"/></g><g id="Regular-L" transform="matrix(1 0 0 1 1378.56 1556)"><path d="M26.768 4.438 Q20.64 -2.819 17.173 -11.768 Q13.706 -20.717 13.061 -30.392 H23.059 Q23.865 -22.814 26.606 -15.719 Q29.348 -8.624 34.185 -2.819 L26.768 4.438 Z M13.061 -43.292 Q13.384 -52.967 17.012 -61.836 Q20.64 -70.705 26.768 -78.122 L34.185 -70.866 Q29.509 -64.739 26.687 -57.805 Q23.865 -50.871 23.059 -43.292 H13.061 Z M71.111 27.819 Q61.598 26.529 52.729 23.304 Q43.86 20.079 36.281 14.435 L43.699 6.695 Q49.826 10.888 56.76 13.871 Q63.694 16.854 71.111 18.144 V27.819 Z M44.021 -80.38  36.281 -88.12 Q44.021 -93.925 52.971 -97.069 Q61.92 -100.214 71.595 -101.504 V-91.829 Q64.016 -90.539 57.083 -87.717 Q50.149 -84.895 44.021 -80.38 Z M62.404 -9.269 V-64.416 L105.619 -36.842 L62.404 -9.269 Z M84.495 27.819 V18.144 Q105.135 15.08 118.68 -0.481 Q132.225 -16.041 132.225 -36.842 Q132.225 -57.644 118.68 -73.204 Q105.135 -88.765 84.495 -91.829 V-101.504 Q109.328 -99.085 125.614 -80.461 Q141.9 -61.836 141.9 -36.842 Q141.9 -11.849 125.614 6.695 Q109.328 25.239 84.495 27.819 Z"/></g><g id="Light-L" transform="matrix(1 0 0 1 1082.77 1556)"><path d="M29.186 2.453 Q23.307 -4.741 20.212 -12.792 Q17.117 -20.842 16.348 -29.958 H23.865 Q24.733 -22.504 27.444 -15.626 Q30.154 -8.748 34.805 -3.067 L29.186 2.453 Z M16.348 -42.858 Q16.857 -51.975 20.082 -59.944 Q23.307 -67.914 29.186 -75.207 L34.805 -69.75 Q30.253 -63.808 27.493 -57.061 Q24.733 -50.313 23.865 -42.858 H16.348 Z M70.987 24.904 Q61.598 23.49 53.783 20.544 Q45.969 17.598 38.576 12.14 L44.195 6.323 Q50.012 10.453 56.791 13.405 Q63.57 16.358 70.987 17.586 V24.904 Z M44.517 -79.202  38.7 -85.019 Q46.192 -90.576 54.087 -93.441 Q61.982 -96.306 71.409 -97.72 V-90.402 Q63.892 -89.174 57.113 -86.383 Q50.335 -83.592 44.517 -79.202 Z M63.706 -11.44 V-61.377 L102.89 -36.408 L63.706 -11.44 Z M84.309 24.904 V17.586 Q104.639 14.646 117.998 -0.636 Q131.357 -15.917 131.357 -36.408 Q131.357 -56.899 117.998 -72.181 Q104.639 -87.462 84.309 -90.402 V-97.72 Q107.839 -95.364 123.257 -77.732 Q138.675 -60.1 138.675 -36.408 Q138.675 -12.717 123.257 4.865 Q107.839 22.448 84.309 24.904 Z"/></g><g id="Thin-L" transform="matrix(1 0 0 1 787.282 1556)"><path d="M31.605 0.468 Q25.974 -6.664 23.251 -13.815 Q20.528 -20.966 19.635 -29.524 H24.671 Q25.602 -22.194 28.281 -15.533 Q30.96 -8.872 35.425 -3.315 L31.605 0.468 Z M19.635 -42.424 Q20.33 -50.983 23.152 -58.053 Q25.974 -65.123 31.605 -72.293 L35.425 -68.634 Q30.997 -62.878 28.299 -56.317 Q25.602 -49.755 24.671 -42.424 H19.635 Z M70.863 21.989 Q61.598 20.451 54.837 17.784 Q48.077 15.117 40.871 9.846 L44.691 5.951 Q50.198 10.019 56.822 12.94 Q63.446 15.861 70.863 17.027 V21.989 Z M45.014 -78.023  41.119 -81.918 Q48.363 -87.227 55.203 -89.813 Q62.044 -92.399 71.223 -93.937 V-88.976 Q63.768 -87.81 57.145 -85.05 Q50.521 -82.29 45.014 -78.023 Z M65.009 -13.61 V-58.338 L100.161 -35.974 L65.009 -13.61 Z M84.123 21.989 V17.027 Q104.143 14.212 117.316 -0.791 Q130.488 -15.793 130.488 -35.974 Q130.488 -56.155 117.316 -71.158 Q104.143 -86.16 84.123 -88.976 V-93.937 Q106.351 -91.643 120.9 -75.003 Q135.45 -58.363 135.45 -35.974 Q135.45 -13.585 120.9 3.036 Q106.351 19.657 84.123 21.989 Z"/></g><g id="Ultralight-L" transform="matrix(1 0 0 1 491.205 1556)"><path d="M33.056 -0.722 Q27.574 -7.817 25.074 -14.429 Q22.575 -21.04 21.608 -29.264 H25.155 Q26.123 -22.007 28.783 -15.477 Q31.444 -8.946 35.797 -3.464 L33.056 -0.722 Z M21.608 -42.164 Q22.414 -50.387 24.994 -56.918 Q27.574 -63.449 33.056 -70.544 L35.797 -67.964 Q31.444 -62.32 28.783 -55.87 Q26.123 -49.42 25.155 -42.164 H21.608 Z M70.789 20.24 Q61.598 18.628 55.47 16.128 Q49.343 13.629 42.248 8.469 L44.989 5.728 Q50.31 9.759 56.841 12.661 Q63.371 15.564 70.789 16.693 V20.24 Z M45.311 -77.316  42.57 -80.057 Q49.665 -85.217 55.873 -87.636 Q62.081 -90.055 71.111 -91.667 V-88.12 Q63.694 -86.991 57.163 -84.25 Q50.633 -81.509 45.311 -77.316 Z M65.79 -14.912 V-56.515 L98.524 -35.714 L65.79 -14.912 Z M84.011 20.24 V16.693 Q103.845 13.951 116.906 -0.884 Q129.968 -15.719 129.968 -35.714 Q129.968 -55.709 116.906 -70.544 Q103.845 -85.379 84.011 -88.12 V-91.667 Q105.457 -89.41 119.486 -73.366 Q133.515 -57.321 133.515 -35.714 Q133.515 -14.106 119.486 1.938 Q105.457 17.983 84.011 20.24 Z"/></g><g id="Bold-M" transform="matrix(1 0 0 1 2281.8 1126)"><path d="M18.125 -0.605 Q13.25 -6.105 9.875 -14.292 Q6.5 -22.48 6 -30.23 H21.75 Q22.375 -24.98 24.312 -20.417 Q26.25 -15.855 29.25 -11.73 L18.125 -0.605 Z M6 -40.23 Q6.5 -47.98 9.875 -56.167 Q13.25 -64.355 18.125 -69.855 L29.25 -58.73 Q26.25 -54.605 24.312 -50.042 Q22.375 -45.48 21.75 -40.23 H6 Z M55 18.77 Q47.125 18.27 38.875 14.77 Q30.625 11.27 25.125 6.52 L36.25 -4.73 Q40.375 -1.48 44.938 0.27 Q49.5 2.02 55 3.02 V18.77 Z M36.5 -65.73  25.125 -77.105 Q30.625 -81.855 38.875 -85.292 Q47.125 -88.73 55 -89.23 V-73.48 Q49.5 -72.48 45.062 -70.73 Q40.625 -68.98 36.5 -65.73 Z M46.5 -10.98 V-59.48 L84.25 -35.23 L46.5 -10.98 Z M65 18.77 V3.02 Q79.375 0.895 88.938 -9.917 Q98.5 -20.73 98.5 -35.23 Q98.5 -49.73 88.938 -60.542 Q79.375 -71.355 65 -73.48 V-89.23 Q86 -87.48 100.125 -71.98 Q114.25 -56.48 114.25 -35.23 Q114.25 -13.98 100.125 1.52 Q86 17.02 65 18.77 Z"/></g><g id="Semibold-M" transform="matrix(1 0 0 1 1985.97 1126)"><path d="M19.484 -1.964 Q14.663 -7.464 11.505 -15.026 Q8.348 -22.589 7.739 -30.23 H21.098 Q21.777 -24.871 23.742 -20.146 Q25.706 -15.42 28.815 -11.295 L19.484 -1.964 Z M7.739 -40.23 Q8.456 -47.871 11.56 -55.434 Q14.663 -62.996 19.484 -68.496 L28.815 -59.165 Q25.706 -55.04 23.742 -50.314 Q21.777 -45.589 21.098 -40.23 H7.739 Z M54.891 16.922 Q47.179 16.314 39.609 13.085 Q32.038 9.857 26.484 5.216 L35.815 -4.295 Q40.049 -1.045 44.72 0.868 Q49.391 2.781 54.891 3.672 V16.922 Z M36.065 -66.165  26.484 -75.746 Q32.038 -80.388 39.609 -83.581 Q47.179 -86.774 55 -87.382 V-74.132 Q49.446 -73.241 44.818 -71.328 Q40.19 -69.415 36.065 -66.165 Z M46.935 -11.741 V-58.719 L83.489 -35.23 L46.935 -11.741 Z M65 16.922 V3.672 Q79.701 1.547 89.427 -9.456 Q99.152 -20.458 99.152 -35.23 Q99.152 -50.002 89.427 -61.004 Q79.701 -72.007 65 -74.132 V-87.382 Q85.239 -85.469 98.821 -70.567 Q112.402 -55.665 112.402 -35.23 Q112.402 -14.795 98.821 0.107 Q85.239 15.009 65 16.922 Z"/></g><g id="Medium-M" transform="matrix(1 0 0 1 1689.91 1126)"><path d="M20.503 -2.983 Q15.723 -8.483 12.728 -15.576 Q9.734 -22.67 9.043 -30.23 H20.609 Q21.329 -24.79 23.314 -19.942 Q25.299 -15.094 28.489 -10.969 L20.503 -2.983 Z M9.043 -40.23 Q9.924 -47.79 12.823 -54.883 Q15.723 -61.977 20.503 -67.477 L28.489 -59.491 Q25.299 -55.366 23.314 -50.518 Q21.329 -45.67 20.609 -40.23 H9.043 Z M54.81 15.536 Q47.22 14.846 40.159 11.822 Q33.098 8.797 27.503 4.237 L35.489 -3.969 Q39.804 -0.719 44.557 1.316 Q49.31 3.352 54.81 4.161 V15.536 Z M35.739 -66.491  27.503 -74.727 Q33.098 -79.287 40.159 -82.297 Q47.22 -85.306 55 -85.996 V-74.621 Q49.405 -73.811 44.635 -71.776 Q39.864 -69.741 35.739 -66.491 Z M47.261 -12.311 V-58.148 L82.918 -35.23 L47.261 -12.311 Z M65 15.536 V4.161 Q79.946 2.036 89.793 -9.109 Q99.641 -20.254 99.641 -35.23 Q99.641 -50.205 89.793 -61.351 Q79.946 -72.496 65 -74.621 V-85.996 Q84.668 -83.961 97.842 -69.507 Q111.016 -55.053 111.016 -35.23 Q111.016 -15.407 97.842 -0.953 Q84.668 13.501 65 15.536 Z"/></g><g id="Regular-M" transform="matrix(1 0 0 1 1394.06 1126)"><path d="M21.25 -3.73 Q16.5 -9.23 13.625 -15.98 Q10.75 -22.73 10 -30.23 H20.25 Q21 -24.73 23 -19.792 Q25 -14.855 28.25 -10.73 L21.25 -3.73 Z M10 -40.23 Q11 -47.73 13.75 -54.48 Q16.5 -61.23 21.25 -66.73 L28.25 -59.73 Q25 -55.605 23 -50.667 Q21 -45.73 20.25 -40.23 H10 Z M54.75 14.52 Q47.25 13.77 40.562 10.895 Q33.875 8.02 28.25 3.52 L35.25 -3.73 Q39.625 -0.48 44.438 1.645 Q49.25 3.77 54.75 4.52 V14.52 Z M35.5 -66.73  28.25 -73.98 Q33.875 -78.48 40.562 -81.355 Q47.25 -84.23 55 -84.98 V-74.98 Q49.375 -74.23 44.5 -72.105 Q39.625 -69.98 35.5 -66.73 Z M47.5 -12.73 V-57.73 L82.5 -35.23 L47.5 -12.73 Z M65 14.52 V4.52 Q80.125 2.395 90.062 -8.855 Q100 -20.105 100 -35.23 Q100 -50.355 90.062 -61.605 Q80.125 -72.855 65 -74.98 V-84.98 Q84.25 -82.855 97.125 -68.73 Q110 -54.605 110 -35.23 Q110 -15.855 97.125 -1.73 Q84.25 12.395 65 14.52 Z"/></g><g id="Light-M" transform="matrix(1 0 0 1 1098.18 1126)"><path d="M22.981 -5.461 Q18.471 -10.961 15.909 -17.062 Q13.346 -23.163 12.596 -30.23 H20.25 Q21 -24.73 23 -19.792 Q25 -14.855 28.25 -10.73 L22.981 -5.461 Z M12.596 -40.23 Q13.5 -47.297 15.986 -53.374 Q18.471 -59.451 22.981 -64.951 L28.25 -59.682 Q25 -55.557 23 -50.643 Q21 -45.73 20.25 -40.23 H12.596 Z M54.75 12.02 Q47.394 11.126 41.476 8.563 Q35.558 6.001 29.981 1.693 L35.25 -3.73 Q39.481 -0.528 44.341 1.621 Q49.202 3.77 54.75 4.52 V12.02 Z M35.5 -66.778  30.077 -72.201 Q35.654 -76.509 41.572 -79.047 Q47.49 -81.586 55 -82.48 V-74.98 Q49.375 -74.23 44.476 -72.105 Q39.577 -69.98 35.5 -66.778 Z M48.75 -15.038 V-55.422 L80.192 -35.23 L48.75 -15.038 Z M65 12.02 V4.52 Q80.125 2.395 90.062 -8.855 Q100 -20.105 100 -35.23 Q100 -50.355 90.062 -61.605 Q80.125 -72.855 65 -74.98 V-82.48 Q83.24 -80.499 95.37 -67.047 Q107.5 -53.595 107.5 -35.23 Q107.5 -16.865 95.37 -3.413 Q83.24 10.039 65 12.02 Z"/></g><g id="Thin-M" transform="matrix(1 0 0 1 802.565 1126)"><path d="M24.712 -7.191 Q20.442 -12.691 18.192 -18.143 Q15.942 -23.595 15.192 -30.23 H20.25 Q21 -24.73 23 -19.792 Q25 -14.855 28.25 -10.73 L24.712 -7.191 Z M15.192 -40.23 Q16 -46.865 18.221 -52.268 Q20.442 -57.672 24.712 -63.172 L28.25 -59.634 Q25 -55.509 23 -50.619 Q21 -45.73 20.25 -40.23 H15.192 Z M54.75 9.52 Q47.538 8.482 42.389 6.232 Q37.24 3.982 31.712 -0.134 L35.25 -3.73 Q39.337 -0.576 44.245 1.597 Q49.154 3.77 54.75 4.52 V9.52 Z M35.5 -66.826  31.904 -70.422 Q37.433 -74.538 42.582 -76.74 Q47.731 -78.942 55 -79.98 V-74.98 Q49.375 -74.23 44.452 -72.105 Q39.529 -69.98 35.5 -66.826 Z M50 -17.345 V-53.115 L77.885 -35.23 L50 -17.345 Z M65 9.52 V4.52 Q80.125 2.395 90.062 -8.855 Q100 -20.105 100 -35.23 Q100 -50.355 90.062 -61.605 Q80.125 -72.855 65 -74.98 V-79.98 Q82.231 -78.143 93.615 -65.365 Q105 -52.586 105 -35.23 Q105 -17.874 93.615 -5.095 Q82.231 7.684 65 9.52 Z"/></g><g id="Ultralight-M" transform="matrix(1 0 0 1 506.415 1126)"><path d="M25.75 -8.23 Q21.625 -13.73 19.562 -18.792 Q17.5 -23.855 16.75 -30.23 H20.25 Q21 -24.73 23 -19.792 Q25 -14.855 28.25 -10.73 L25.75 -8.23 Z M16.75 -40.23 Q17.5 -46.605 19.562 -51.605 Q21.625 -56.605 25.75 -62.105 L28.25 -59.605 Q25 -55.48 23 -50.605 Q21 -45.73 20.25 -40.23 H16.75 Z M54.75 8.02 Q47.625 6.895 42.938 4.833 Q38.25 2.77 32.75 -1.23 L35.25 -3.73 Q39.25 -0.605 44.188 1.583 Q49.125 3.77 54.75 4.52 V8.02 Z M35.5 -66.855  33 -69.355 Q38.5 -73.355 43.188 -75.355 Q47.875 -77.355 55 -78.48 V-74.98 Q49.375 -74.23 44.438 -72.105 Q39.5 -69.98 35.5 -66.855 Z M50.75 -18.73 V-51.73 L76.5 -35.23 L50.75 -18.73 Z M65 8.02 V4.52 Q80.125 2.395 90.062 -8.855 Q100 -20.105 100 -35.23 Q100 -50.355 90.062 -61.605 Q80.125 -72.855 65 -74.98 V-78.48 Q81.625 -76.73 92.562 -64.355 Q103.5 -51.98 103.5 -35.23 Q103.5 -18.48 92.562 -6.105 Q81.625 6.27 65 8.02 Z"/></g><g id="Bold-S" transform="matrix(1 0 0 1 2294.23 696)"><path d="M15.583 -8.601 Q11.934 -12.941 9.32 -19.253 Q6.707 -25.565 6.411 -31.679 H17.851 Q18.246 -27.439 19.922 -23.839 Q21.599 -20.239 23.966 -16.984 L15.583 -8.601 Z M6.411 -38.78 Q6.509 -44.895 9.221 -51.207 Q11.934 -57.519 15.583 -61.859 L23.966 -53.476 Q21.599 -50.221 19.922 -46.621 Q18.246 -43.021 17.851 -38.78 H6.411 Z M43.888 5.798 Q37.675 5.502 31.264 2.79 Q24.854 0.078 20.613 -3.67 L28.996 -11.954 Q32.152 -9.39 35.801 -7.96 Q39.45 -6.53 43.888 -5.84 V5.798 Z M28.996 -58.505  20.613 -66.889 Q24.854 -70.636 31.264 -73.299 Q37.675 -75.962 43.691 -76.258 V-64.62 Q39.351 -63.93 35.85 -62.5 Q32.349 -61.07 28.996 -58.505 Z M37.083 -17.28 V-53.18 L65.29 -35.23 L37.083 -17.28 Z M50.792 5.798 V-5.84 Q61.739 -7.22 69.284 -15.505 Q76.829 -23.789 76.829 -35.23 Q76.829 -46.67 69.284 -54.955 Q61.739 -63.239 50.792 -64.62 V-76.258 Q66.671 -75.173 77.569 -63.387 Q88.467 -51.602 88.467 -35.23 Q88.467 -18.858 77.569 -7.073 Q66.671 4.713 50.792 5.798 Z"/></g><g id="Semibold-S" transform="matrix(1 0 0 1 1998.1 696)"><path d="M16.655 -9.673 Q13.048 -14.013 10.606 -19.832 Q8.164 -25.651 7.783 -31.679 H17.337 Q17.774 -27.353 19.472 -23.624 Q21.17 -19.896 23.623 -16.641 L16.655 -9.673 Z M7.783 -38.78 Q8.053 -44.809 10.551 -50.628 Q13.048 -56.447 16.655 -60.787 L23.623 -53.819 Q21.17 -50.564 19.472 -46.836 Q17.774 -43.107 17.337 -38.78 H7.783 Z M43.802 4.34 Q37.718 3.959 31.843 1.461 Q25.968 -1.037 21.685 -4.699 L28.653 -11.611 Q31.894 -9.047 35.629 -7.489 Q39.364 -5.93 43.802 -5.325 V4.34 Z M28.653 -58.849  21.685 -65.817 Q25.968 -69.479 31.843 -71.949 Q37.718 -74.419 43.691 -74.8 V-65.135 Q39.308 -64.53 35.657 -62.971 Q32.006 -61.413 28.653 -58.849 Z M37.426 -17.881 V-52.579 L64.689 -35.23 L37.426 -17.881 Z M50.792 4.34 V-5.325 Q61.997 -6.706 69.67 -15.141 Q77.343 -23.575 77.343 -35.23 Q77.343 -46.885 69.67 -55.319 Q61.997 -63.754 50.792 -65.135 V-74.8 Q66.07 -73.587 76.54 -62.273 Q87.009 -50.959 87.009 -35.23 Q87.009 -19.501 76.54 -8.187 Q66.07 3.127 50.792 4.34 Z"/></g><g id="Medium-S" transform="matrix(1 0 0 1 1701.85 696)"><path d="M17.459 -10.477 Q13.885 -14.817 11.571 -20.266 Q9.258 -25.715 8.812 -31.679 H16.951 Q17.42 -27.289 19.134 -23.464 Q20.848 -19.639 23.366 -16.384 L17.459 -10.477 Z M8.812 -38.78 Q9.211 -44.745 11.548 -50.194 Q13.885 -55.643 17.459 -59.983 L23.366 -54.076 Q20.848 -50.821 19.134 -46.996 Q17.42 -43.171 16.951 -38.78 H8.812 Z M43.738 3.247 Q37.75 2.801 32.277 0.464 Q26.804 -1.873 22.489 -5.471 L28.395 -11.354 Q31.702 -8.79 35.501 -7.135 Q39.3 -5.48 43.738 -4.939 V3.247 Z M28.395 -59.106  22.489 -65.013 Q26.804 -68.61 32.277 -70.936 Q37.75 -73.261 43.691 -73.707 V-65.521 Q39.276 -64.98 35.512 -63.325 Q31.749 -61.67 28.395 -59.106 Z M37.683 -18.331 V-52.129 L64.239 -35.23 L37.683 -18.331 Z M50.792 3.247 V-4.939 Q62.189 -6.32 69.959 -14.867 Q77.729 -23.414 77.729 -35.23 Q77.729 -47.046 69.959 -55.593 Q62.189 -64.14 50.792 -65.521 V-73.707 Q65.62 -72.397 75.768 -61.436 Q85.915 -50.476 85.915 -35.23 Q85.915 -19.984 75.768 -9.024 Q65.62 1.937 50.792 3.247 Z"/></g><g id="Regular-S" transform="matrix(1 0 0 1 1405.73 696)"><path d="M18.048 -11.067 Q14.498 -15.406 12.279 -20.584 Q10.06 -25.762 9.567 -31.679 H16.668 Q17.161 -27.241 18.887 -23.346 Q20.613 -19.45 23.177 -16.195 L18.048 -11.067 Z M9.567 -38.78 Q10.06 -44.698 12.279 -49.876 Q14.498 -55.054 18.048 -59.393 L23.177 -54.265 Q20.613 -51.01 18.887 -47.114 Q17.161 -43.219 16.668 -38.78 H9.567 Z M43.691 2.445 Q37.773 1.952 32.596 -0.267 Q27.418 -2.486 23.078 -6.037 L28.207 -11.165 Q31.56 -8.601 35.406 -6.875 Q39.253 -5.149 43.691 -4.656 V2.445 Z M28.207 -59.294  23.078 -64.423 Q27.418 -67.973 32.596 -70.193 Q37.773 -72.412 43.691 -72.905 V-65.804 Q39.253 -65.311 35.406 -63.585 Q31.56 -61.859 28.207 -59.294 Z M37.872 -18.661 V-51.799 L63.909 -35.23 L37.872 -18.661 Z M50.792 2.445 V-4.656 Q62.331 -6.037 70.172 -14.667 Q78.012 -23.296 78.012 -35.23 Q78.012 -47.164 70.172 -55.793 Q62.331 -64.423 50.792 -65.804 V-72.905 Q65.29 -71.524 75.202 -60.823 Q85.113 -50.122 85.113 -35.23 Q85.113 -20.338 75.202 -9.637 Q65.29 1.064 50.792 2.445 Z"/></g><g id="Light-S" transform="matrix(1 0 0 1 1109.75 696)"><path d="M19.414 -12.433 Q16.053 -16.772 14.081 -21.438 Q12.108 -26.103 11.615 -31.679 H16.668 Q17.161 -27.241 18.887 -23.346 Q20.613 -19.45 23.177 -16.195 L19.414 -12.433 Z M11.615 -38.78 Q12.032 -44.357 14.043 -49.003 Q16.053 -53.65 19.414 -57.989 L23.177 -54.227 Q20.613 -50.972 18.887 -47.095 Q17.161 -43.219 16.668 -38.78 H11.615 Z M43.691 0.472 Q37.887 -0.135 33.316 -2.107 Q28.746 -4.08 24.444 -7.479 L28.207 -11.165 Q31.446 -8.639 35.331 -6.894 Q39.215 -5.149 43.691 -4.656 V0.472 Z M28.207 -59.332  24.52 -63.019 Q28.821 -66.418 33.392 -68.372 Q37.963 -70.325 43.691 -70.932 V-65.804 Q39.253 -65.311 35.387 -63.585 Q31.522 -61.859 28.207 -59.332 Z M38.858 -20.482 V-49.978 L62.088 -35.23 L38.858 -20.482 Z M50.792 0.472 V-4.656 Q62.331 -6.037 70.172 -14.667 Q78.012 -23.296 78.012 -35.23 Q78.012 -47.164 70.172 -55.793 Q62.331 -64.423 50.792 -65.804 V-70.932 Q64.493 -69.665 73.817 -59.495 Q83.141 -49.326 83.141 -35.23 Q83.141 -21.134 73.817 -10.965 Q64.493 -0.795 50.792 0.472 Z"/></g><g id="Thin-S" transform="matrix(1 0 0 1 814.015 696)"><path d="M20.779 -13.798 Q17.608 -18.137 15.882 -22.291 Q14.156 -26.445 13.663 -31.679 H16.668 Q17.161 -27.241 18.887 -23.346 Q20.613 -19.45 23.177 -16.195 L20.779 -13.798 Z M13.663 -38.78 Q14.005 -44.015 15.807 -48.131 Q17.608 -52.247 20.779 -56.586 L23.177 -54.189 Q20.613 -50.934 18.887 -47.076 Q17.161 -43.219 16.668 -38.78 H13.663 Z M43.691 -1.5 Q38.001 -2.221 34.037 -3.947 Q30.073 -5.673 25.809 -8.92 L28.207 -11.165 Q31.332 -8.677 35.255 -6.913 Q39.177 -5.149 43.691 -4.656 V-1.5 Z M28.207 -59.37  25.961 -61.616 Q30.225 -64.863 34.189 -66.551 Q38.153 -68.239 43.691 -68.96 V-65.804 Q39.253 -65.311 35.368 -63.585 Q31.484 -61.859 28.207 -59.37 Z M39.845 -22.303 V-48.157 L60.267 -35.23 L39.845 -22.303 Z M50.792 -1.5 V-4.656 Q62.331 -6.037 70.172 -14.667 Q78.012 -23.296 78.012 -35.23 Q78.012 -47.164 70.172 -55.793 Q62.331 -64.423 50.792 -65.804 V-68.96 Q63.697 -67.807 72.432 -58.168 Q81.168 -48.529 81.168 -35.23 Q81.168 -21.931 72.432 -12.292 Q63.697 -2.653 50.792 -1.5 Z"/></g><g id="Ultralight-S" transform="matrix(1 0 0 1 517.792 696)"><path d="M21.599 -14.617 Q18.541 -18.957 16.963 -22.803 Q15.386 -26.65 14.892 -31.679 H16.668 Q17.161 -27.241 18.887 -23.346 Q20.613 -19.45 23.177 -16.195 L21.599 -14.617 Z M14.892 -38.78 Q15.188 -43.81 16.865 -47.607 Q18.541 -51.404 21.599 -55.744 L23.177 -54.166 Q20.613 -50.911 18.887 -47.065 Q17.161 -43.219 16.668 -38.78 H14.892 Z M43.691 -2.684 Q38.069 -3.473 34.469 -5.051 Q30.87 -6.629 26.629 -9.785 L28.207 -11.165 Q31.264 -8.7 35.209 -6.925 Q39.154 -5.149 43.691 -4.656 V-2.684 Z M28.207 -59.393  26.826 -60.774 Q31.067 -63.93 34.667 -65.459 Q38.267 -66.987 43.691 -67.776 V-65.804 Q39.253 -65.311 35.357 -63.585 Q31.461 -61.859 28.207 -59.393 Z M40.436 -23.395 V-47.065 L59.175 -35.23 L40.436 -23.395 Z M50.792 -2.684 V-4.656 Q62.331 -6.037 70.172 -14.667 Q78.012 -23.296 78.012 -35.23 Q78.012 -47.164 70.172 -55.793 Q62.331 -64.423 50.792 -65.804 V-67.776 Q63.219 -66.691 71.602 -57.371 Q79.985 -48.051 79.985 -35.23 Q79.985 -22.409 71.602 -13.089 Q63.219 -3.769 50.792 -2.684 Z"/></g></g></svg>